<?xml version="1.0" encoding="iso-8859-1"?>
<!-- Generator: Adobe Illustrator 16.0.0, SVG Export Plug-In . SVG Version: 6.00 Build 0)  -->
<!DOCTYPE svg PUBLIC "-//W3C//DTD SVG 1.1//EN" "http://www.w3.org/Graphics/SVG/1.1/DTD/svg11.dtd">
<svg version="1.1" id="Capa_1" xmlns="http://www.w3.org/2000/svg" xmlns:xlink="http://www.w3.org/1999/xlink" x="0px" y="0px"
	 width="599.189px" height="599.189px" viewBox="0 0 599.189 599.189" style="enable-background:new 0 0 599.189 599.189;"
	 xml:space="preserve">
<g>
	<g>
		<circle cx="280.592" cy="138.706" r="36.185"/>
		<path d="M576.017,392.025c-6.312-2.84-18.217-11.062-28.735-18.32l-8.396-5.768c-26.718-18.178-64.853-38.756-92.153-52.812
			c-5.719-2.945-11.418-4.438-16.945-4.438c-8.749,0-15.701,3.748-20.187,6.57c-0.593,0.373-1.319,0.555-2.209,0.555
			c-6.665,0-17.843-9.076-23.218-13.436c-4.924-3.998-10.767-6.446-16.122-7.268c0.832-6.876-2.955-13.723-9.706-16.399
			l-59.966-23.83l-12.632-52.297c-0.029-0.105-0.086-0.201-0.125-0.315c0.058-3.825-2.295-7.641-5.919-8.932l-41.071-14.717
			c-4.073-1.453-8.969,0.479-10.949,4.342l-59.116,114.97c-1.989,3.824-0.994,9.342,2.2,12.26l29.71,27.348
			c1.606,1.482,2.524,3.539,2.716,5.652c-11.36-3.787-25.704-7.898-37.514-9.104l-20.75-2.104
			c-5.03-0.518-10.366-0.785-15.415-0.785c-6.866,0-19.144,0.498-24.317,3.807c-2.094,1.348-4.227,1.826-5.518,1.826
			c-0.622,0-0.975-0.125-0.87-0.02c-3.911-3.719-10.958-3.824-15.424-0.277c-8.128,6.445,3.347,23.543,5.728,26.9
			c5.078,7.172,4.236,18.588-1.836,24.928c-7.392,7.736-16.161,12.672-19.747,12.672c0,0-0.01,0-0.019,0
			c-6.713,0-23.954,3.844-36.768,7.467C21.496,413.111,0,420.178,0,429.262c0,6.197,5.23,10.873,11.245,11.018
			c1.119,0.822,3.328,5.984,3.328,14.152c0,11.771,5.852,25.742,13.311,31.805c8.061,6.531,28.314,10.432,43.251,10.432h291.618
			c16.82,0,42.754-2.246,57.806-5.01c13.474-2.467,33.985-6.369,55.099-11.006c26.613-5.854,44.906-11.361,55.932-16.793
			c8.138-4.016,15.701-8.797,22.472-14.199c3.213-2.564,6.493-5.309,9.726-8.014c8.07-6.771,17.212-14.439,21.821-15.703
			c6.445-1.748,11.141-5.248,12.871-9.59c1.138-2.85,0.908-5.844-0.67-8.434C594.481,402.479,584.097,395.66,576.017,392.025z
			 M355.036,352.236c-9.495,4.016-30.083,6.953-45.269,6.158c-25.197-1.281-44.915-2.381-58.618-3.26
			c2.362-3.539,2.687-9.258,0.641-12.967l-15.616-28.516c-2.094-3.787-1.893-9.803,0.431-13.475l27.263-52.545l6.034,24.547
			c1.205,4.925,4.724,8.951,9.429,10.834l67.464,26.813c0.765,0.297,1.529,0.537,2.304,0.699c0.698,0.162,1.387,0.037,2.085,0.096
			c0.258,4.369,2.247,8.76,5.9,11.953c2.983,2.609,6.445,8.932,9.247,16.877C367.486,342.75,363.136,348.822,355.036,352.236z"/>
	</g>
</g>
<g>
</g>
<g>
</g>
<g>
</g>
<g>
</g>
<g>
</g>
<g>
</g>
<g>
</g>
<g>
</g>
<g>
</g>
<g>
</g>
<g>
</g>
<g>
</g>
<g>
</g>
<g>
</g>
<g>
</g>
</svg>
