<?xml version="1.0" encoding="iso-8859-1"?>
<!-- Generator: Adobe Illustrator 16.0.0, SVG Export Plug-In . SVG Version: 6.00 Build 0)  -->
<!DOCTYPE svg PUBLIC "-//W3C//DTD SVG 1.1//EN" "http://www.w3.org/Graphics/SVG/1.1/DTD/svg11.dtd">
<svg version="1.1" id="Capa_1" xmlns="http://www.w3.org/2000/svg" xmlns:xlink="http://www.w3.org/1999/xlink" x="0px" y="0px"
	 width="623.6px" height="623.6px" viewBox="0 0 623.6 623.6" style="enable-background:new 0 0 623.6 623.6;" xml:space="preserve"
	>
<g>
	<path d="M212.2,114.1L115.3,0l113.9,96.9c1.8,1.8,5.4,5.4,0,10.7l-6.3,6.3C217.5,119.4,214,115.8,212.2,114.1z M237.3,154.4
		c8.9,8.9,23.3,8.9,32.3,0c8.9-8.9,8.9-23.3,0-32.3c-8.9-8.9-23.3-8.9-32.3,0C228.4,131.1,228.4,145.5,237.3,154.4z M204.2,197.5
		c-11.7,11.7-11.7,30.5,0,42.2c11.7,11.7,30.5,11.7,42.2,0c11.7-11.7,11.7-30.5,0-42.2C234.7,185.8,215.8,185.8,204.2,197.5z
		 M187.9,189.4l8.1-8.1c7.2-8.1,0.9-13.5-1.8-16.1L10.3,3.7l161.6,184C174.6,190.3,179.8,196.6,187.9,189.4z M617.8,468.5v127.399
		v17c0,5.4-4.5,10.7-10.7,10.7h-56.6c-6.3,0-10.7-4.5-10.7-10.7v-17V577H241v18.899v17c0,5.4-4.5,10.7-10.7,10.7h-56.6
		c-5.4,0-10.7-4.5-10.7-10.7v-17V469.3c0-13.5,1.8-24.2,8.9-38.6l69.9-146.3c8.1-17,29.6-31.4,48.4-31.4h199.3
		c18.899,0,41.3,14.4,49.399,31.4l70,146.4C615.2,444.3,617.8,455,617.8,468.5z M225.6,425.399H554l-47.5-101.5
		c-9.8-19.8-17.9-24.2-38.601-24.2H312.7c-20.7,0-28.7,4.5-38.601,24.2L225.6,425.399z M270.5,499c0-18.9-15.2-35-35-35
		c-19.8,0-35,15.2-35,35c0,18.899,15.2,35,35,35C255.3,534,270.5,517.899,270.5,499z M578.399,499c0-18.9-15.199-35-35-35
		c-19.8,0-35,15.2-35,35c0,18.899,15.2,35,35,35C563.1,534,578.399,517.899,578.399,499z M161.1,231.5c-8.9-8.9-23.3-8.9-32.3,0
		c-8.9,8.9-8.9,23.3,0,32.3c8.9,8.9,23.3,8.9,32.3,0C170,254.8,170,240.6,161.1,231.5z M119.7,205.6L5.8,108.7l96.9,113.9
		c1.8,1.8,5.4,5.4,10.7,0l6.3-6.3C126,211,121.6,207.3,119.7,205.6z"/>
</g>
<g>
</g>
<g>
</g>
<g>
</g>
<g>
</g>
<g>
</g>
<g>
</g>
<g>
</g>
<g>
</g>
<g>
</g>
<g>
</g>
<g>
</g>
<g>
</g>
<g>
</g>
<g>
</g>
<g>
</g>
</svg>
