<?xml version="1.0" encoding="iso-8859-1"?>
<!-- Generator: Adobe Illustrator 18.0.0, SVG Export Plug-In . SVG Version: 6.00 Build 0)  -->
<!DOCTYPE svg PUBLIC "-//W3C//DTD SVG 1.1//EN" "http://www.w3.org/Graphics/SVG/1.1/DTD/svg11.dtd">
<svg version="1.1" id="Capa_1" xmlns="http://www.w3.org/2000/svg" xmlns:xlink="http://www.w3.org/1999/xlink" x="0px" y="0px"
	 viewBox="0 0 448.092 448.092" style="enable-background:new 0 0 448.092 448.092;" xml:space="preserve">
<g>
	<path d="M329.511,263.498h-2.582v-9.957c0-6.43-5.705-9.626-10.207-10.813l-7.089-13.331c-0.611-1.148-1.741-1.928-3.031-2.091
		l-52.144-6.579l-47.986-76.033c-0.733-1.161-2.01-1.865-3.383-1.865H88.744c-1.641,0-3.114,1.002-3.719,2.527l-28.123,71.002
		H29.604c-12.113,0-19.061,6.947-19.061,19.061v28.143C4.627,264.182,0,269.201,0,275.28v10.344c0,6.496,5.285,11.781,11.781,11.781
		h35.574c2.169,19.159,18.466,34.098,38.194,34.098s36.026-14.939,38.195-34.098h93.802c2.169,19.159,18.465,34.098,38.192,34.098
		c19.73,0,36.029-14.938,38.198-34.098h35.573c6.495,0,11.779-5.286,11.779-11.782V275.28
		C341.29,268.783,336.006,263.498,329.511,263.498z M85.55,313.503c-11.274,0-20.447-9.173-20.447-20.449
		c0-11.275,9.173-20.449,20.447-20.449c11.275,0,20.448,9.173,20.448,20.449C105.998,304.33,96.825,313.503,85.55,313.503z
		 M255.739,313.503c-11.273,0-20.445-9.173-20.445-20.449c0-11.275,9.172-20.449,20.445-20.449c11.276,0,20.451,9.173,20.451,20.448
		C276.19,304.33,267.016,313.503,255.739,313.503z"/>
	<path d="M264.91,202.618l35.5,15c0.762,0.322,1.554,0.475,2.332,0.475c2.339,0,4.563-1.376,5.53-3.666
		c1.289-3.053-0.14-6.573-3.192-7.862l-35.5-15c-3.05-1.29-6.572,0.14-7.862,3.191C260.429,197.808,261.857,201.328,264.91,202.618z
		"/>
	<path d="M301.323,192.661c1.026,2.165,3.18,3.431,5.426,3.431c0.861,0,1.736-0.186,2.566-0.58c2.994-1.419,4.271-4.998,2.852-7.992
		l-32-67.5c-1.421-2.995-4.998-4.272-7.992-2.851c-2.994,1.419-4.271,4.998-2.852,7.992L301.323,192.661z"/>
	<path d="M403.096,166.725c1.174,0,2.36-0.344,3.4-1.06l37-25.5c2.729-1.88,3.415-5.617,1.535-8.345
		c-1.881-2.729-5.617-3.416-8.346-1.536l-37,25.5c-2.728,1.88-3.415,5.617-1.535,8.345
		C399.315,165.818,401.19,166.725,403.096,166.725z"/>
	<path d="M443.315,178.35l-24-5c-3.25-0.674-6.422,1.406-7.098,4.65c-0.676,3.244,1.406,6.422,4.65,7.098l24,5
		c0.413,0.086,0.824,0.127,1.23,0.127c2.782,0,5.278-1.946,5.868-4.777C448.641,182.204,446.559,179.026,443.315,178.35z"/>
	<path d="M437.337,202.591c-6.435,2.636-13.808,2.017-19.735-1.655l-51.138-33.997l7.707-23.774c0.507-1.562,0.007-3.274-1.26-4.319
		c-1.265-1.044-3.042-1.21-4.479-0.415l-3.503,1.936l0.092-1.793c0.081-1.588-0.787-3.074-2.21-3.784
		c-1.427-0.71-3.133-0.509-4.351,0.512l-4.68,3.915c-1.461-0.695-3.07-1.062-4.736-1.062c-1.962,0-3.848,0.509-5.505,1.466
		l-10.535-4.506c-1.763-0.754-3.813-0.151-4.886,1.436c-0.429,0.633-0.653,1.351-0.684,2.072c-3.127,10.854,1.776,21.536,11.749,26
		l5.069,25.277l-12.775,3.692c-0.794,0.229-1.497,0.699-2.014,1.345l-14.655,18.325c-1.203,1.504-1.163,3.651,0.095,5.11
		l2.237,2.595c0.75,0.87,1.839,1.375,2.987,1.388c0.015,0,0.028,0,0.042,0c1.134,0,2.216-0.481,2.975-1.326l12.081-13.436
		l5.391-1.168l-3.253,14.786c-0.24,1.089-0.014,2.229,0.623,3.145l11.535,16.57c0.768,1.104,2.01,1.715,3.285,1.715
		c0.563,0,1.132-0.119,1.671-0.367l2.445-1.126c1.997-0.919,2.878-3.278,1.972-5.281l-7.613-16.842l2.827-9.53
		c8.599,2.746,19.565,5.538,27.764,7.51c0.146,3.137,1.018,6.503,3.114,9.897c0.07,0.114,0.146,0.224,0.228,0.331l14.934,19.504
		l-5.571,11.453c-0.505,1.038-0.537,2.242-0.089,3.305c0.448,1.063,1.334,1.88,2.43,2.243l4.082,1.35
		c0.414,0.137,0.838,0.203,1.256,0.203c1.435,0,2.805-0.777,3.518-2.098l8.679-16.049c0.559-1.036,0.636-2.265,0.206-3.361
		l-2.893-7.39l12.712,3.091l3.387,12.536c0.479,1.773,2.086,2.957,3.858,2.957c0.265,0,0.534-0.026,0.804-0.081l2.987-0.61
		c1.07-0.219,2.004-0.865,2.585-1.789c0.582-0.925,0.76-2.047,0.493-3.106l-4.31-17.126c-0.27-1.071-0.971-1.983-1.937-2.52
		l-9.855-5.475c0.329-4.989-0.331-9.435-1.931-13.321c2.782,0.829,5.665,1.259,8.557,1.259c3.816,0,7.644-0.73,11.255-2.209
		c2.044-0.837,3.023-3.173,2.185-5.218C441.718,202.733,439.386,201.754,437.337,202.591z"/>
</g>
<g>
</g>
<g>
</g>
<g>
</g>
<g>
</g>
<g>
</g>
<g>
</g>
<g>
</g>
<g>
</g>
<g>
</g>
<g>
</g>
<g>
</g>
<g>
</g>
<g>
</g>
<g>
</g>
<g>
</g>
</svg>
