<?xml version="1.0" encoding="iso-8859-1"?>
<!-- Generator: Adobe Illustrator 19.0.0, SVG Export Plug-In . SVG Version: 6.00 Build 0)  -->
<svg version="1.1" id="Layer_1" xmlns="http://www.w3.org/2000/svg" xmlns:xlink="http://www.w3.org/1999/xlink" x="0px" y="0px"
	 viewBox="0 0 461.738 461.738" style="enable-background:new 0 0 461.738 461.738;" xml:space="preserve">
<g>
	<g>
		<g>
			<path d="M232.957,224.947c-0.934,2.085-2.057,4.026-3.333,5.818v39.286c8.667-3.736,17.917-6.366,27.573-7.717v-61.591
				c0-7.614-6.172-13.787-13.786-13.787h-17.634C235.595,196.584,238.911,211.666,232.957,224.947z"/>
			<path d="M411.819,302.337l-42.552-3.256l0.026-4.394l-21.813-2.793c8.806,8.565,16.159,18.614,21.652,29.741
				c2.929,5.933,5.33,12.171,7.139,18.655l10.586,0.81l-14.536,97.235c-1.725,11.065,5.847,21.433,16.911,23.159
				c11.1,1.725,21.438-5.875,23.159-16.912l17.914-118.903c0.871-5.586-0.63-11.282-4.14-15.713
				C422.657,305.533,417.456,302.768,411.819,302.337z"/>
			<circle cx="327.255" cy="112.029" r="37.296"/>
			<path d="M419.252,249.978l-57.977-7.425l-24.282-49.115l28.485,32.618l4.219,0.54l0.198-33.305
				c0.083-13.914-11.13-25.261-25.044-25.344c-1.091-0.007-42.995-0.256-44.928-0.267c-13.914-0.083-25.261,11.13-25.344,25.044
				l-0.408,68.581c16.294,0.289,31.719,4.202,45.501,10.97l-12.975-63.862l28.298,57.238c2.508,5.072,7.389,8.553,13.001,9.272
				l66.963,8.576c9.258,1.185,17.721-5.358,18.907-14.614C435.052,259.628,428.509,251.163,419.252,249.978z"/>
			<path d="M272.234,277.366c-50.68,0-91.91,41.231-91.91,91.911c0,50.68,41.23,91.91,91.91,91.91
				c50.68,0,91.911-41.23,91.911-91.91S322.914,277.366,272.234,277.366z M328.149,329.035
				c-17.373,10.03-19.715,11.382-37.082,21.409c19.465-33.715,2.018-3.495,21.409-37.082
				C318.503,317.712,323.799,323.008,328.149,329.035z M279.127,300.69c7.567,0.755,14.768,2.753,21.419,5.762
				c-19.187,33.232-3.606,6.246-21.419,37.099C279.127,305.477,279.127,324.796,279.127,300.69z M265.34,300.69
				c0,22.477,0,20.409,0,42.86c-11.25-19.486-10.203-17.672-21.418-37.098C250.572,303.443,257.774,301.444,265.34,300.69z
				 M231.992,313.362c10.03,17.373,11.383,19.715,21.409,37.082c-17.423-10.059-19.636-11.337-37.082-21.409
				C220.669,323.008,225.965,317.712,231.992,313.362z M209.409,340.965c19.435,11.221,17.647,10.188,37.1,21.419
				c-22.448,0-20.379,0-42.862,0C204.402,354.817,206.4,347.616,209.409,340.965z M203.647,376.17c22.477,0,20.409,0,42.861,0
				c-19.486,11.25-17.678,10.207-37.099,21.419C206.4,390.938,204.402,383.737,203.647,376.17z M216.319,409.519
				c17.373-10.03,19.715-11.383,37.082-21.409c-10.024,17.362-11.383,19.715-21.409,37.082
				C225.965,420.842,220.669,415.546,216.319,409.519z M265.34,437.864c-7.566-0.755-14.768-2.753-21.419-5.762
				c11.213-19.422,10.175-17.624,21.419-37.098C265.34,417.446,265.34,415.382,265.34,437.864z M260.132,369.277
				c0-6.673,5.429-12.102,12.102-12.102c6.673,0,12.101,5.429,12.101,12.102c0,6.673-5.429,12.101-12.101,12.101
				C265.561,381.378,260.132,375.95,260.132,369.277z M279.127,437.864c0-22.477,0-20.408,0-42.861
				c11.25,19.486,10.207,17.678,21.419,37.099C293.895,435.111,286.694,437.109,279.127,437.864z M312.476,425.191
				c-10.088-17.473-11.337-19.636-21.409-37.082c13.133,7.582,22.945,13.247,37.082,21.409
				C323.799,415.546,318.503,420.841,312.476,425.191z M335.059,397.589c-19.434-11.22-17.646-10.188-37.099-21.419
				c22.448,0,20.378,0,42.861,0C340.066,383.737,338.068,390.938,335.059,397.589z M297.959,362.384
				c19.457-11.233,17.668-10.201,37.1-21.419c3.009,6.651,5.007,13.853,5.762,21.419
				C318.344,362.384,320.412,362.384,297.959,362.384z"/>
			<circle cx="137.147" cy="37.471" r="37.471"/>
			<path d="M145.498,263.185l0.067,0.005l3.2-38.927l-34.402-15.423l-6.292-2.821c-6.111-2.74-10.036-8.387-10.892-14.565
				l-7.733-56.98l22.05,50.762c1.809,4.165,5.109,7.504,9.252,9.362l73.899,33.131c9.176,4.113,19.951,0.012,24.066-9.167
				c4.114-9.177,0.01-19.952-9.167-24.066l-67.459-30.243l-19.238-44.288l23.898,29.272l7.893,3.538l2.45-29.807
				c1.241-15.094-9.99-28.336-25.084-29.577l-48.738-4.006c-15.094-1.241-28.336,9.99-29.577,25.084L44.703,254.9
				c0.136,0.94,11.671,76.128,11.815,77.067L28.517,434.102c-3.191,11.639,3.657,23.661,15.296,26.852
				c11.636,3.19,23.661-3.658,26.852-15.296l29.233-106.624c0.812-2.96,0.991-6.057,0.525-9.091L89.478,258.58l8.022,0.659
				l26.881,73.289l-21.776,102.825c-2.5,11.807,5.044,23.405,16.851,25.905s23.405-5.046,25.905-16.851l23.078-108.975
				c0.851-4.019,0.552-8.196-0.862-12.052L145.498,263.185z"/>
		</g>
	</g>
</g>
<g>
</g>
<g>
</g>
<g>
</g>
<g>
</g>
<g>
</g>
<g>
</g>
<g>
</g>
<g>
</g>
<g>
</g>
<g>
</g>
<g>
</g>
<g>
</g>
<g>
</g>
<g>
</g>
<g>
</g>
</svg>
