<?xml version="1.0" encoding="iso-8859-1"?>
<!-- Generator: Adobe Illustrator 19.0.0, SVG Export Plug-In . SVG Version: 6.00 Build 0)  -->
<svg version="1.1" id="Capa_1" xmlns="http://www.w3.org/2000/svg" xmlns:xlink="http://www.w3.org/1999/xlink" x="0px" y="0px"
	 viewBox="0 0 456.121 456.121" style="enable-background:new 0 0 456.121 456.121;" xml:space="preserve">
<g>
	<g id="XMLID_20_">
		<circle id="XMLID_21_" cx="375.935" cy="39.374" r="39.374"/>
		<path id="XMLID_88_" d="M433.466,220.155l-53.533-30.689l0,0l-4.473-67.698l18.587,55.872l9.719-51.393
			c2.73-14.434-6.758-28.348-21.192-31.077l-46.606-8.814c-4.319-0.817-7.683-1.072-11.519,0.16l-77.229,24.789
			c-5.139,1.649-9.252,5.541-11.185,10.58s-1.475,10.683,1.244,15.345l36.479,62.562c2.705,4.639,7.184,7.598,12.075,8.525
			l-0.294,1.556l0.031-0.623c-7.716,3.314-50.359,21.631-58.1,24.956l3.598-8.093c0.634-1.427,0.556-3.071-0.211-4.431
			c-0.767-1.361-2.133-2.278-3.683-2.473l-21.158-2.669l2.545-7.38c0.541-1.567,0.346-3.295-0.53-4.703
			c-0.876-1.408-2.34-2.346-3.985-2.553l-23.836-3.007c-4.775-8.751-13.211-14.82-18.068-17.774
			c-0.355-0.216-0.755-0.323-1.154-0.323c-0.406,0-0.813,0.111-1.171,0.333c-0.712,0.44-1.116,1.243-1.047,2.076l2.002,24.196
			l0.063-0.016c-1.4,1.98-2.45,4.235-3.079,6.684c-0.413,1-0.117-0.588-3.456,25.844l-6.768,25.817l-88.331,38.118
			c-6.032,2.603-11.174,6.784-14.946,12.021l-22.414-5.612c-2.915-0.73-6.049,0.623-7.453,3.417
			c-1.626,3.236-0.321,7.179,2.916,8.805l18.115,9.103c-1.345,7.237,0.849,11.914,2.68,16.871
			c12.055,33.228,14.597,45.761,14.976,47.186c-1.635,2.088-3.313,3.837-4.839,6.886c-5.321,10.241-2.332,18.014-0.312,26.704
			c2.39,10.278,3.983,17.129,3.983,17.129c0.568,2.431,2.646,4.338,5.268,4.561c0.17,0.014,0.34,0.021,0.508,0.021
			c3.045,0,5.633-2.333,5.896-5.423c0,0,0.595-7.009,1.488-17.523c0.223-2.628,0.465-5.476,0.721-8.488
			c0.149-1.76,0.052-1.792,0.617-2.735c0.726-1.151,2.011-1.838,2.304-1.838c0.044,0,0.066,0.015,0.06,0.047
			c0.004,0.047,0,0.092-0.009,0.131c0.182-0.129,0.547-0.389,0.729-0.519c-0.212,0.204-0.264,0.255-0.263,0.255
			s0.059-0.054,0.061-0.054c0,0-0.005,0.005-0.019,0.019c0.201-0.135,2.838-1.915,2.942-1.985c3.646-2.46,7.581-4.036,9.364-14.702
			c1.528-9.255,1.585-25.31,1.525-34.693l56.549-14.488c3.273,2.499,6.811,4.417,10.486,5.667l26.763,61.25
			c0.852,1.942,2.795,3.269,4.991,3.269c0.163,0,0.327-0.007,0.492-0.022c2.998-0.27,5.21-2.919,4.941-5.917l-5.968-66.375
			c11.126-11.892,14.118-32.645,5.854-51.192l1.823-46.416l15.011,1.893c7.444,0.938,14.705-2.273,19.046-8.198
			c29.794,5.219,56.373,9.875,58.218,10.199l3.162,57.876l-66.646,9.334c-2.161,0.303-4.2,0.92-6.08,1.796
			c-0.703,10.963-3.933,21.378-9.46,30.139c4.254,7.329,12.62,11.706,21.478,10.465l86.124-12.063
			c11.015-1.542,19.013-11.262,18.406-22.367l-3.85-70.483c-0.102-1.867,0.66-3.677,2.067-4.909
			c1.407-1.232,3.302-1.749,5.139-1.401c2.165,0.409,3.939,1.957,4.639,4.046l25.215,75.259l13.105,106.528
			c1.442,11.725,12.111,20.075,23.859,18.633c11.734-1.444,20.077-12.126,18.633-23.86l-13.369-108.67
			c-0.175-1.424-0.492-2.827-0.948-4.187l-23.306-69.176l-34.099-19.548c-14.296-8.196-18.651-23.859-17.305-31.964l11.954-71.951
			l4.939,74.758l0,0c0.391,5.911,3.7,11.303,8.928,14.3c6.634,3.803,54.101,31.014,61.832,35.446
			c8.535,4.894,19.434,1.938,24.341-6.592c0.002-0.004,0.005-0.008,0.007-0.012C445.013,235.882,441.906,224.993,433.466,220.155z
			 M294.19,164.126l-14.978-25.686l21.118-6.778L294.19,164.126z"/>
	</g>
</g>
<g>
</g>
<g>
</g>
<g>
</g>
<g>
</g>
<g>
</g>
<g>
</g>
<g>
</g>
<g>
</g>
<g>
</g>
<g>
</g>
<g>
</g>
<g>
</g>
<g>
</g>
<g>
</g>
<g>
</g>
</svg>
