<?xml version="1.0" encoding="iso-8859-1"?>
<!-- Generator: Adobe Illustrator 19.0.0, SVG Export Plug-In . SVG Version: 6.00 Build 0)  -->
<svg version="1.1" id="Capa_1" xmlns="http://www.w3.org/2000/svg" xmlns:xlink="http://www.w3.org/1999/xlink" x="0px" y="0px"
	 viewBox="0 0 488.676 488.676" style="enable-background:new 0 0 488.676 488.676;" xml:space="preserve">
<g>
	<g>
		<g>
			<path d="M445.678,135.876c-9.7-58.1-51.5-110.7-107.3-128.2c-36-11.2-74.3-8.5-111.5-2.3c-48.8,8.1-103,26.7-122.8,72
				c-10.5,24-11.6,51-11.6,77.1c0,62.2-51.9,75.6-51.9,95.3c-0.4,22.5,45.7,25.6,41.4,48c-1.8,10.1-14.6,18.6-10,27.5
				c2.3,4.3,7.4,5.8,10.5,9.3c8.9,10.1-5.4,24.8-4.6,38.3c0.8,17,23.4,26.1,39.9,21.3c47.2-13.7,62.7,19.4,65.1,29.8
				c5.4,20.9,7,43,4.6,64.7h174.3c-11.5-153.5,26.3-177.7,35.6-188.6C435.278,254.376,455.378,193.576,445.678,135.876z
				 M413.178,193.976l-41.4,41.4c-6.6,6.6-17.8,6.6-24.4,0l-135.2-135.5c-6.6-6.6-6.6-17.8,0-24.4l41.4-41c6.6-6.6,17.8-6.6,24.4,0
				l135.1,135.1C420.178,176.176,420.178,187.476,413.178,193.976z"/>
			
				<rect x="280.803" y="114.049" transform="matrix(-0.7071 -0.7071 0.7071 -0.7071 438.4793 451.5208)" width="63.899" height="41.8"/>
		</g>
	</g>
</g>
<g>
</g>
<g>
</g>
<g>
</g>
<g>
</g>
<g>
</g>
<g>
</g>
<g>
</g>
<g>
</g>
<g>
</g>
<g>
</g>
<g>
</g>
<g>
</g>
<g>
</g>
<g>
</g>
<g>
</g>
</svg>
