<svg xmlns="http://www.w3.org/2000/svg" style="display: none;"><symbol id="bike-accident" viewBox="0 0 486.7 486.7"><title>bike-accident</title><path d="M193.455,277.068h-4.063v-13.097c0-7.512-6.93-11.178-12.21-12.474l-8.87-16.68c-0.61-1.148-1.741-1.928-3.031-2.091 l-64.294-8.112L41.98,131.121c-0.733-1.161-2.01-1.865-3.383-1.865H4c-2.209,0-4,1.791-4,4v179.547 c0,1.061,0.421,2.078,1.171,2.829c0.75,0.75,1.768,1.171,2.829,1.171l54.244,0c2.233,22.782,21.492,40.643,44.848,40.643 c23.36,0,42.623-17.861,44.856-40.643l45.508-0.001c7.461,0,13.53-6.07,13.53-13.532v-12.67 C206.985,283.138,200.916,277.068,193.455,277.068z M103.091,339.445c-14.925,0-27.068-12.145-27.068-27.073 c0-14.928,12.143-27.072,27.068-27.072c14.93,0,27.076,12.145,27.076,27.072C130.167,327.3,118.021,339.445,103.091,339.445z"/><path d="M430.407,241.856c-6.451,0-12.647,1.105-18.422,3.111l-17.592-37.339h24.674c2.189,0,3.971,1.826,3.971,4.015v0.591 c0,2.189-1.781,3.969-3.971,3.969c-3.314,0-6,2.687-6,6c0,3.314,2.686,6,6,6c8.807,0,15.971-7.163,15.971-15.969v-0.591 c0-8.806-7.164-16.015-15.971-16.015h-34.144c-3.314,0-6,2.687-6,6c0,1.041,0.266,2.019,0.731,2.872l6.498,13.792l-66.29,0.002 l-4.271-10.214l-0.159-0.452h6.196c3.313,0,6-2.686,6-6c0-3.313-2.687-6-6-6h-27.413c-3.314,0-6,2.687-6,6c0,3.314,2.686,6,6,6 h8.495l1.354,3.849c0.067,0.244,0.145,0.487,0.245,0.727l0.067,0.16l0.257,0.731c0.124,0.351,0.283,0.678,0.462,0.99l3.71,8.873 L295.85,246.3c-6.741-2.861-14.149-4.444-21.922-4.444c-31.042,0-56.296,25.253-56.296,56.294 c0,31.041,25.254,56.295,56.296,56.295c31.042,0,56.297-25.254,56.297-56.295c0-18.986-9.458-35.794-23.899-45.996l8.379-15.093 l25.755,61.598c-2.759,2.803-4.467,6.643-4.467,10.876c0,8.556,6.961,15.517,15.517,15.517c8.556,0,15.516-6.961,15.516-15.517 c0-3.003-0.872-5.801-2.354-8.179l10.717-15.104c-0.829,3.838-1.276,7.815-1.276,11.897c0,31.041,25.254,56.295,56.296,56.295 c31.04,0,56.293-25.254,56.293-56.295C486.7,267.109,461.447,241.856,430.407,241.856z M395.228,237.555l-40.336,56.846 c-1.085-0.243-2.209-0.381-3.367-0.382l-26.644-63.725l66.926-0.002L395.228,237.555z M318.225,298.15 c0,24.424-19.871,44.295-44.297,44.295c-24.425,0-44.296-19.871-44.296-44.295c0-24.424,19.871-44.294,44.296-44.294 c5.66,0,11.069,1.079,16.05,3.021l-15.488,27.898c-0.188-0.008-0.372-0.028-0.561-0.028c-7.39,0-13.402,6.012-13.402,13.402 c0,7.391,6.013,13.403,13.402,13.403c7.39,0,13.401-6.013,13.401-13.403c0-2.802-0.867-5.404-2.344-7.557l15.482-27.885 C311.241,270.795,318.225,283.672,318.225,298.15z M430.407,342.445c-24.425,0-44.296-19.871-44.296-44.295 c0-15.532,8.042-29.212,20.175-37.122l13.593,28.852c-1.796,2.281-2.877,5.149-2.877,8.27c0,7.391,6.012,13.403,13.401,13.403 c7.392,0,13.405-6.013,13.405-13.403c0-7.279-5.837-13.208-13.075-13.386l-13.603-28.873c4.193-1.32,8.652-2.035,13.276-2.035 c24.423,0,44.293,19.87,44.293,44.294C474.7,322.574,454.83,342.445,430.407,342.445z"/><g> <path d="M185.563,174.784c-0.963-3.169-4.31-4.957-7.486-3.995c-3.17,0.964-4.959,4.316-3.995,7.486l24.761,81.435 c0.787,2.588,3.166,4.256,5.739,4.256c0.578,0,1.166-0.084,1.748-0.261c3.17-0.964,4.959-4.316,3.995-7.486L185.563,174.784z"/> <path d="M269.934,209.279c-1.97-2.665-5.728-3.228-8.392-1.259l-37.966,28.062c-2.665,1.97-3.229,5.727-1.259,8.392 c1.177,1.592,2.991,2.434,4.83,2.434c1.239,0,2.489-0.383,3.562-1.175l37.966-28.062 C271.34,215.701,271.903,211.944,269.934,209.279z"/> <path d="M239.516,140.802c0.684-3.243-1.391-6.425-4.633-7.109c-3.248-0.683-6.425,1.391-7.109,4.633l-17.057,80.885 c-0.684,3.243,1.391,6.425,4.633,7.109c0.418,0.088,0.834,0.13,1.244,0.13c2.776,0,5.27-1.938,5.865-4.763L239.516,140.802z"/> </g></symbol><symbol id="boating-accidents" viewBox="0 0 599.189 599.189"><title>boating-accidents</title><circle cx="280.592" cy="138.706" r="36.185"/><path d="M576.017,392.025c-6.312-2.84-18.217-11.062-28.735-18.32l-8.396-5.768c-26.718-18.178-64.853-38.756-92.153-52.812 c-5.719-2.945-11.418-4.438-16.945-4.438c-8.749,0-15.701,3.748-20.187,6.57c-0.593,0.373-1.319,0.555-2.209,0.555 c-6.665,0-17.843-9.076-23.218-13.436c-4.924-3.998-10.767-6.446-16.122-7.268c0.832-6.876-2.955-13.723-9.706-16.399 l-59.966-23.83l-12.632-52.297c-0.029-0.105-0.086-0.201-0.125-0.315c0.058-3.825-2.295-7.641-5.919-8.932l-41.071-14.717 c-4.073-1.453-8.969,0.479-10.949,4.342l-59.116,114.97c-1.989,3.824-0.994,9.342,2.2,12.26l29.71,27.348 c1.606,1.482,2.524,3.539,2.716,5.652c-11.36-3.787-25.704-7.898-37.514-9.104l-20.75-2.104 c-5.03-0.518-10.366-0.785-15.415-0.785c-6.866,0-19.144,0.498-24.317,3.807c-2.094,1.348-4.227,1.826-5.518,1.826 c-0.622,0-0.975-0.125-0.87-0.02c-3.911-3.719-10.958-3.824-15.424-0.277c-8.128,6.445,3.347,23.543,5.728,26.9 c5.078,7.172,4.236,18.588-1.836,24.928c-7.392,7.736-16.161,12.672-19.747,12.672c0,0-0.01,0-0.019,0 c-6.713,0-23.954,3.844-36.768,7.467C21.496,413.111,0,420.178,0,429.262c0,6.197,5.23,10.873,11.245,11.018 c1.119,0.822,3.328,5.984,3.328,14.152c0,11.771,5.852,25.742,13.311,31.805c8.061,6.531,28.314,10.432,43.251,10.432h291.618 c16.82,0,42.754-2.246,57.806-5.01c13.474-2.467,33.985-6.369,55.099-11.006c26.613-5.854,44.906-11.361,55.932-16.793 c8.138-4.016,15.701-8.797,22.472-14.199c3.213-2.564,6.493-5.309,9.726-8.014c8.07-6.771,17.212-14.439,21.821-15.703 c6.445-1.748,11.141-5.248,12.871-9.59c1.138-2.85,0.908-5.844-0.67-8.434C594.481,402.479,584.097,395.66,576.017,392.025z M355.036,352.236c-9.495,4.016-30.083,6.953-45.269,6.158c-25.197-1.281-44.915-2.381-58.618-3.26 c2.362-3.539,2.687-9.258,0.641-12.967l-15.616-28.516c-2.094-3.787-1.893-9.803,0.431-13.475l27.263-52.545l6.034,24.547 c1.205,4.925,4.724,8.951,9.429,10.834l67.464,26.813c0.765,0.297,1.529,0.537,2.304,0.699c0.698,0.162,1.387,0.037,2.085,0.096 c0.258,4.369,2.247,8.76,5.9,11.953c2.983,2.609,6.445,8.932,9.247,16.877C367.486,342.75,363.136,348.822,355.036,352.236z"/></symbol><symbol id="brain-injury" viewBox="0 0 535.416 535.417"><title>brain-injury</title><path d="M500.364,167.693c-9.108-44.77-3.293-138.514-158.318-163.234C187.062-20.285,47.397,58.361,82.528,230.248 c0,31.33-62.035,79.965-47.088,96.406c14.946,16.441,40.31,17.083,40.31,17.083s-16.488,31.33-9.073,39.982 c7.409,8.653,28.025,4.951,28.025,4.951s-19.156,13.803-19.156,24.511c0,10.72,32.345,24.954,32.345,24.954 s-5.932,59.285,42.64,55.174c48.57-4.109,56.75-17.83,56.75-17.83l14.41,59.938H409.68l-6.609-130.27 C403.07,405.159,518.511,279.829,500.364,167.693z M427.219,238.235l-52.406,11.712l-23.262-20.925l8.232-20.925h67.436V238.235z M424.79,57.24l38.769,41.08l-38.769,32.556h-21.696V109.95l12.401-15.881l-1.542-26.542L424.79,57.24z M403.094,38.626 l-2.312,57.626l-20.144,30.232l-13.207-4.916l1.752-34.739l-33.91-10.603l29.076-43.848L403.094,38.626z M272.007,78.352 l0.584-47.888l50.001,0.42l23.541,10.463l-15.109,23.845l-12.401,17.621l37.191,11.642v24.02l-7.742,21.684l-48.074,3.106v-8.512 l-9.026-3.877l-8.799,27.184l-23.547,9.26l-31.879-22.875l13.563-24.032l19.384,6.586l3.287-11.63l-10.258-7.753l7.076-13.569 l40.199,13.569l12.016-5.43L272.007,78.352z M182.181,95.984c2.324,0,47.292,0,47.292,0l-37.209-16.266l11.239-19.384 l55.122-21.416V72.35l-37.688,0.502l25.579,15.39l-24.037,46.499h-44.957C177.533,134.752,179.851,95.984,182.181,95.984z M178.549,144.444h32.941l42.627,29.298l-27.131,10.836L178.549,144.444z M240.321,213.036V186.68l15.507-8.524l38.762,16.278 l24.008,7.753l3.106-12.027l-30.991-12.004l2.312-20.926l46.521,1.542l41.08-24.02l41.08,12.401l43.416-31.785l23.261,39.539 l-55.817,3.865l-9.295,24.032l25.573,3.094l-17.831-8.524l3.877-12.401l49.861-1.646l-3.936,43.345l-46.031,0.257l-20.832-17.924 l-29.473,11.245l-22.957-0.875l19.875-18.894l-44.572-2.032l15.893,19.863l-13.954,31.003h-74.412L240.321,213.036z M358.172,287.069l-41.979-43.801c5.441,0,29.461-6.983,29.461-6.983l35.768,39.924L358.172,287.069z"/></symbol><symbol id="burn-injury" viewBox="0 0 16 16"><title>burn-injury</title><path fill="#444444" d="M4.9 15.8c0 0-3.9-0.4-3.9-5.7 0-4.1 3.1-6.5 3.1-6.5s1.3 1.4 2.3 1.9c1 0.6 1.4-5.5 1.4-5.5s7.2 3.9 7.2 9.8c0 6.1-4 5.9-4 5.9s1.8-2.4 1.8-5.2c0-3-3.9-6.7-3.9-6.7s-0.5 4.4-2.1 5c-1.6-0.9-2.5-2.3-2.5-2.3s-3.7 5.8 0.6 9.3z"/><path fill="#444444" d="M8.2 16.1c-2-0.1-3.7-1.4-3.7-3.2s0.7-2.6 0.7-2.6 0.5 1 1.1 1.5 1.8 0.8 2.4 0.1c0.6-0.6 0.8-2.3 0.8-2.3s1.4 1.1 1.2 3c-0.1 2-0.9 3.5-2.5 3.5z"/></symbol><symbol id="car-accident" viewBox="0 0 611.962 611.962"><title>car-accident</title><path d="M372.8,165.581l-50.3,65.9l32.2-76.9c0.8-4,4-6.3,6.3-6.3c0.8,0,1.5,0.8,3.1,1.5l4.7,2.3l4.7,2.3 C377.6,156.981,376.8,160.781,372.8,165.581z M304.6,237.781l14.1-110.7c1.5-7.8-0.8-13.3-6.3-13.3H305.3c-1.5,0-8.6,0-8.6,0 c-5.5,0-7.8,4.7-6.3,13.3L304.6,237.781z M324.2,357.781c4.7,11,6.3,18.101,6.3,28.2v91.8v12.601c0,4-3.1,7.8-7.8,7.8h-40.8 c-4.7,0-7.8-3.101-7.8-7.8v-12.601v-13.3H56.6v13.3v12.601c0,4-3.1,7.8-7.8,7.8h-41c-4.7,0-7.8-3.101-7.8-7.8v-12.601v-91.8 c0-10.3,1.5-18.1,6.3-28.2l51-106.7c5.5-12.6,21.2-22.7,35.3-22.7H237c14.1,0,29.9,10.3,36.2,22.7L324.2,357.781z M45.5,353.181 H284l-34.5-73.7c-7.1-14.1-13.3-17.3-28.2-17.3h-113c-2.3,0-4,0-5.5,0c-11,1.5-16.5,5.5-21.9,17.3L45.5,353.181z M78.5,406.481 c0-14.1-11.8-25.1-25.9-25.1s-25.1,11-25.1,25.1s11,25.9,25.1,25.9S78.5,420.681,78.5,406.481z M302.9,406.481 c0-14.1-11.8-25.1-25.9-25.1s-25.1,11-25.1,25.1s11,25.9,25.1,25.9C291.1,432.481,302.9,420.681,302.9,406.481z M287.3,238.481 l-32.2-76.9c-1.5-4-4-6.3-6.3-6.3c-0.8,0-1.5,0-2.3,0s-0.8,0.8-1.5,0.8l-4.7,2.3l-4,3.1c-4,2.3-3.1,6.3,0.8,11L287.3,238.481z M609.7,389.181l-23.601,88.7l-3.1,11.8c-0.8,4-5.5,6.3-9.4,5.5l-39.199-10.3c-4-0.801-6.301-5.5-5.5-9.4l3.1-11.8l4-12.601 l-193.9-51.8v-14.899c0-6.301-0.8-13.301-2.3-19.601c10.3-0.8,19.601-7.8,22.7-18.899c4-13.301-4.7-27.4-18.1-31.4 c-8.601-1.5-17.301,0.8-23.601,6.3l-18.1-37.7c0.8-0.8,1.5-2.3,2.3-3.1l76.9-89.5c7.1-8.6,18.899-13.3,29.899-14.1 c4,0,7.101,0,10.3,0.8l137.4,35.3c14.1,4,26.7,18.1,29,31.4l21.9,116.2C612.9,371.881,612.2,379.881,609.7,389.181z M576,348.481 l-14.9-80c-3.1-15.6-8.6-20.4-22.699-24.4l-109.101-29.9c-5.5-1.5-9.399-1.5-13.3-1.5c-6.3,0.8-11.8,4.7-18.1,11.8l-53.4,61.9 L576,348.481z M561.1,373.581c-1.5-0.8-3.1-0.8-4.699-0.8c-1.601,0-3.101,0-4.7,0c-10.3,0.8-18.9,7.8-21.2,18.9 c-4,13.3,4,27.399,17.3,31.399s27.4-4.699,31.4-18.1C583,391.481,574.5,377.381,561.1,373.581z"/></symbol><symbol id="car-damage" viewBox="0 0 623.6 623.6"><title>car-damage</title><path d="M212.2,114.1L115.3,0l113.9,96.9c1.8,1.8,5.4,5.4,0,10.7l-6.3,6.3C217.5,119.4,214,115.8,212.2,114.1z M237.3,154.4 c8.9,8.9,23.3,8.9,32.3,0c8.9-8.9,8.9-23.3,0-32.3c-8.9-8.9-23.3-8.9-32.3,0C228.4,131.1,228.4,145.5,237.3,154.4z M204.2,197.5 c-11.7,11.7-11.7,30.5,0,42.2c11.7,11.7,30.5,11.7,42.2,0c11.7-11.7,11.7-30.5,0-42.2C234.7,185.8,215.8,185.8,204.2,197.5z M187.9,189.4l8.1-8.1c7.2-8.1,0.9-13.5-1.8-16.1L10.3,3.7l161.6,184C174.6,190.3,179.8,196.6,187.9,189.4z M617.8,468.5v127.399 v17c0,5.4-4.5,10.7-10.7,10.7h-56.6c-6.3,0-10.7-4.5-10.7-10.7v-17V577H241v18.899v17c0,5.4-4.5,10.7-10.7,10.7h-56.6 c-5.4,0-10.7-4.5-10.7-10.7v-17V469.3c0-13.5,1.8-24.2,8.9-38.6l69.9-146.3c8.1-17,29.6-31.4,48.4-31.4h199.3 c18.899,0,41.3,14.4,49.399,31.4l70,146.4C615.2,444.3,617.8,455,617.8,468.5z M225.6,425.399H554l-47.5-101.5 c-9.8-19.8-17.9-24.2-38.601-24.2H312.7c-20.7,0-28.7,4.5-38.601,24.2L225.6,425.399z M270.5,499c0-18.9-15.2-35-35-35 c-19.8,0-35,15.2-35,35c0,18.899,15.2,35,35,35C255.3,534,270.5,517.899,270.5,499z M578.399,499c0-18.9-15.199-35-35-35 c-19.8,0-35,15.2-35,35c0,18.899,15.2,35,35,35C563.1,534,578.399,517.899,578.399,499z M161.1,231.5c-8.9-8.9-23.3-8.9-32.3,0 c-8.9,8.9-8.9,23.3,0,32.3c8.9,8.9,23.3,8.9,32.3,0C170,254.8,170,240.6,161.1,231.5z M119.7,205.6L5.8,108.7l96.9,113.9 c1.8,1.8,5.4,5.4,10.7,0l6.3-6.3C126,211,121.6,207.3,119.7,205.6z"/></symbol><symbol id="car-run-over-dog" viewBox="0 0 448.092 448.092"><title>car-run-over-dog</title><path d="M329.511,263.498h-2.582v-9.957c0-6.43-5.705-9.626-10.207-10.813l-7.089-13.331c-0.611-1.148-1.741-1.928-3.031-2.091 l-52.144-6.579l-47.986-76.033c-0.733-1.161-2.01-1.865-3.383-1.865H88.744c-1.641,0-3.114,1.002-3.719,2.527l-28.123,71.002 H29.604c-12.113,0-19.061,6.947-19.061,19.061v28.143C4.627,264.182,0,269.201,0,275.28v10.344c0,6.496,5.285,11.781,11.781,11.781 h35.574c2.169,19.159,18.466,34.098,38.194,34.098s36.026-14.939,38.195-34.098h93.802c2.169,19.159,18.465,34.098,38.192,34.098 c19.73,0,36.029-14.938,38.198-34.098h35.573c6.495,0,11.779-5.286,11.779-11.782V275.28 C341.29,268.783,336.006,263.498,329.511,263.498z M85.55,313.503c-11.274,0-20.447-9.173-20.447-20.449 c0-11.275,9.173-20.449,20.447-20.449c11.275,0,20.448,9.173,20.448,20.449C105.998,304.33,96.825,313.503,85.55,313.503z M255.739,313.503c-11.273,0-20.445-9.173-20.445-20.449c0-11.275,9.172-20.449,20.445-20.449c11.276,0,20.451,9.173,20.451,20.448 C276.19,304.33,267.016,313.503,255.739,313.503z"/><path d="M264.91,202.618l35.5,15c0.762,0.322,1.554,0.475,2.332,0.475c2.339,0,4.563-1.376,5.53-3.666 c1.289-3.053-0.14-6.573-3.192-7.862l-35.5-15c-3.05-1.29-6.572,0.14-7.862,3.191C260.429,197.808,261.857,201.328,264.91,202.618z "/><path d="M301.323,192.661c1.026,2.165,3.18,3.431,5.426,3.431c0.861,0,1.736-0.186,2.566-0.58c2.994-1.419,4.271-4.998,2.852-7.992 l-32-67.5c-1.421-2.995-4.998-4.272-7.992-2.851c-2.994,1.419-4.271,4.998-2.852,7.992L301.323,192.661z"/><path d="M403.096,166.725c1.174,0,2.36-0.344,3.4-1.06l37-25.5c2.729-1.88,3.415-5.617,1.535-8.345 c-1.881-2.729-5.617-3.416-8.346-1.536l-37,25.5c-2.728,1.88-3.415,5.617-1.535,8.345 C399.315,165.818,401.19,166.725,403.096,166.725z"/><path d="M443.315,178.35l-24-5c-3.25-0.674-6.422,1.406-7.098,4.65c-0.676,3.244,1.406,6.422,4.65,7.098l24,5 c0.413,0.086,0.824,0.127,1.23,0.127c2.782,0,5.278-1.946,5.868-4.777C448.641,182.204,446.559,179.026,443.315,178.35z"/><path d="M437.337,202.591c-6.435,2.636-13.808,2.017-19.735-1.655l-51.138-33.997l7.707-23.774c0.507-1.562,0.007-3.274-1.26-4.319 c-1.265-1.044-3.042-1.21-4.479-0.415l-3.503,1.936l0.092-1.793c0.081-1.588-0.787-3.074-2.21-3.784 c-1.427-0.71-3.133-0.509-4.351,0.512l-4.68,3.915c-1.461-0.695-3.07-1.062-4.736-1.062c-1.962,0-3.848,0.509-5.505,1.466 l-10.535-4.506c-1.763-0.754-3.813-0.151-4.886,1.436c-0.429,0.633-0.653,1.351-0.684,2.072c-3.127,10.854,1.776,21.536,11.749,26 l5.069,25.277l-12.775,3.692c-0.794,0.229-1.497,0.699-2.014,1.345l-14.655,18.325c-1.203,1.504-1.163,3.651,0.095,5.11 l2.237,2.595c0.75,0.87,1.839,1.375,2.987,1.388c0.015,0,0.028,0,0.042,0c1.134,0,2.216-0.481,2.975-1.326l12.081-13.436 l5.391-1.168l-3.253,14.786c-0.24,1.089-0.014,2.229,0.623,3.145l11.535,16.57c0.768,1.104,2.01,1.715,3.285,1.715 c0.563,0,1.132-0.119,1.671-0.367l2.445-1.126c1.997-0.919,2.878-3.278,1.972-5.281l-7.613-16.842l2.827-9.53 c8.599,2.746,19.565,5.538,27.764,7.51c0.146,3.137,1.018,6.503,3.114,9.897c0.07,0.114,0.146,0.224,0.228,0.331l14.934,19.504 l-5.571,11.453c-0.505,1.038-0.537,2.242-0.089,3.305c0.448,1.063,1.334,1.88,2.43,2.243l4.082,1.35 c0.414,0.137,0.838,0.203,1.256,0.203c1.435,0,2.805-0.777,3.518-2.098l8.679-16.049c0.559-1.036,0.636-2.265,0.206-3.361 l-2.893-7.39l12.712,3.091l3.387,12.536c0.479,1.773,2.086,2.957,3.858,2.957c0.265,0,0.534-0.026,0.804-0.081l2.987-0.61 c1.07-0.219,2.004-0.865,2.585-1.789c0.582-0.925,0.76-2.047,0.493-3.106l-4.31-17.126c-0.27-1.071-0.971-1.983-1.937-2.52 l-9.855-5.475c0.329-4.989-0.331-9.435-1.931-13.321c2.782,0.829,5.665,1.259,8.557,1.259c3.816,0,7.644-0.73,11.255-2.209 c2.044-0.837,3.023-3.173,2.185-5.218C441.718,202.733,439.386,201.754,437.337,202.591z"/></symbol><symbol id="catastrophic-injury" viewBox="0 0 461.738 461.738"><title>catastrophic-injury</title><path d="M232.957,224.947c-0.934,2.085-2.057,4.026-3.333,5.818v39.286c8.667-3.736,17.917-6.366,27.573-7.717v-61.591 c0-7.614-6.172-13.787-13.786-13.787h-17.634C235.595,196.584,238.911,211.666,232.957,224.947z"/><path d="M411.819,302.337l-42.552-3.256l0.026-4.394l-21.813-2.793c8.806,8.565,16.159,18.614,21.652,29.741 c2.929,5.933,5.33,12.171,7.139,18.655l10.586,0.81l-14.536,97.235c-1.725,11.065,5.847,21.433,16.911,23.159 c11.1,1.725,21.438-5.875,23.159-16.912l17.914-118.903c0.871-5.586-0.63-11.282-4.14-15.713 C422.657,305.533,417.456,302.768,411.819,302.337z"/><circle cx="327.255" cy="112.029" r="37.296"/><path d="M419.252,249.978l-57.977-7.425l-24.282-49.115l28.485,32.618l4.219,0.54l0.198-33.305 c0.083-13.914-11.13-25.261-25.044-25.344c-1.091-0.007-42.995-0.256-44.928-0.267c-13.914-0.083-25.261,11.13-25.344,25.044 l-0.408,68.581c16.294,0.289,31.719,4.202,45.501,10.97l-12.975-63.862l28.298,57.238c2.508,5.072,7.389,8.553,13.001,9.272 l66.963,8.576c9.258,1.185,17.721-5.358,18.907-14.614C435.052,259.628,428.509,251.163,419.252,249.978z"/><path d="M272.234,277.366c-50.68,0-91.91,41.231-91.91,91.911c0,50.68,41.23,91.91,91.91,91.91 c50.68,0,91.911-41.23,91.911-91.91S322.914,277.366,272.234,277.366z M328.149,329.035 c-17.373,10.03-19.715,11.382-37.082,21.409c19.465-33.715,2.018-3.495,21.409-37.082 C318.503,317.712,323.799,323.008,328.149,329.035z M279.127,300.69c7.567,0.755,14.768,2.753,21.419,5.762 c-19.187,33.232-3.606,6.246-21.419,37.099C279.127,305.477,279.127,324.796,279.127,300.69z M265.34,300.69 c0,22.477,0,20.409,0,42.86c-11.25-19.486-10.203-17.672-21.418-37.098C250.572,303.443,257.774,301.444,265.34,300.69z M231.992,313.362c10.03,17.373,11.383,19.715,21.409,37.082c-17.423-10.059-19.636-11.337-37.082-21.409 C220.669,323.008,225.965,317.712,231.992,313.362z M209.409,340.965c19.435,11.221,17.647,10.188,37.1,21.419 c-22.448,0-20.379,0-42.862,0C204.402,354.817,206.4,347.616,209.409,340.965z M203.647,376.17c22.477,0,20.409,0,42.861,0 c-19.486,11.25-17.678,10.207-37.099,21.419C206.4,390.938,204.402,383.737,203.647,376.17z M216.319,409.519 c17.373-10.03,19.715-11.383,37.082-21.409c-10.024,17.362-11.383,19.715-21.409,37.082 C225.965,420.842,220.669,415.546,216.319,409.519z M265.34,437.864c-7.566-0.755-14.768-2.753-21.419-5.762 c11.213-19.422,10.175-17.624,21.419-37.098C265.34,417.446,265.34,415.382,265.34,437.864z M260.132,369.277 c0-6.673,5.429-12.102,12.102-12.102c6.673,0,12.101,5.429,12.101,12.102c0,6.673-5.429,12.101-12.101,12.101 C265.561,381.378,260.132,375.95,260.132,369.277z M279.127,437.864c0-22.477,0-20.408,0-42.861 c11.25,19.486,10.207,17.678,21.419,37.099C293.895,435.111,286.694,437.109,279.127,437.864z M312.476,425.191 c-10.088-17.473-11.337-19.636-21.409-37.082c13.133,7.582,22.945,13.247,37.082,21.409 C323.799,415.546,318.503,420.841,312.476,425.191z M335.059,397.589c-19.434-11.22-17.646-10.188-37.099-21.419 c22.448,0,20.378,0,42.861,0C340.066,383.737,338.068,390.938,335.059,397.589z M297.959,362.384 c19.457-11.233,17.668-10.201,37.1-21.419c3.009,6.651,5.007,13.853,5.762,21.419 C318.344,362.384,320.412,362.384,297.959,362.384z"/><circle cx="137.147" cy="37.471" r="37.471"/><path d="M145.498,263.185l0.067,0.005l3.2-38.927l-34.402-15.423l-6.292-2.821c-6.111-2.74-10.036-8.387-10.892-14.565 l-7.733-56.98l22.05,50.762c1.809,4.165,5.109,7.504,9.252,9.362l73.899,33.131c9.176,4.113,19.951,0.012,24.066-9.167 c4.114-9.177,0.01-19.952-9.167-24.066l-67.459-30.243l-19.238-44.288l23.898,29.272l7.893,3.538l2.45-29.807 c1.241-15.094-9.99-28.336-25.084-29.577l-48.738-4.006c-15.094-1.241-28.336,9.99-29.577,25.084L44.703,254.9 c0.136,0.94,11.671,76.128,11.815,77.067L28.517,434.102c-3.191,11.639,3.657,23.661,15.296,26.852 c11.636,3.19,23.661-3.658,26.852-15.296l29.233-106.624c0.812-2.96,0.991-6.057,0.525-9.091L89.478,258.58l8.022,0.659 l26.881,73.289l-21.776,102.825c-2.5,11.807,5.044,23.405,16.851,25.905s23.405-5.046,25.905-16.851l23.078-108.975 c0.851-4.019,0.552-8.196-0.862-12.052L145.498,263.185z"/></symbol><symbol id="dog-bite-injuries-2" viewBox="0 0 456.121 456.121"><title>dog-bite-injuries-2</title><circle id="XMLID_21_" cx="375.935" cy="39.374" r="39.374"/><path id="XMLID_88_" d="M433.466,220.155l-53.533-30.689l0,0l-4.473-67.698l18.587,55.872l9.719-51.393 c2.73-14.434-6.758-28.348-21.192-31.077l-46.606-8.814c-4.319-0.817-7.683-1.072-11.519,0.16l-77.229,24.789 c-5.139,1.649-9.252,5.541-11.185,10.58s-1.475,10.683,1.244,15.345l36.479,62.562c2.705,4.639,7.184,7.598,12.075,8.525 l-0.294,1.556l0.031-0.623c-7.716,3.314-50.359,21.631-58.1,24.956l3.598-8.093c0.634-1.427,0.556-3.071-0.211-4.431 c-0.767-1.361-2.133-2.278-3.683-2.473l-21.158-2.669l2.545-7.38c0.541-1.567,0.346-3.295-0.53-4.703 c-0.876-1.408-2.34-2.346-3.985-2.553l-23.836-3.007c-4.775-8.751-13.211-14.82-18.068-17.774 c-0.355-0.216-0.755-0.323-1.154-0.323c-0.406,0-0.813,0.111-1.171,0.333c-0.712,0.44-1.116,1.243-1.047,2.076l2.002,24.196 l0.063-0.016c-1.4,1.98-2.45,4.235-3.079,6.684c-0.413,1-0.117-0.588-3.456,25.844l-6.768,25.817l-88.331,38.118 c-6.032,2.603-11.174,6.784-14.946,12.021l-22.414-5.612c-2.915-0.73-6.049,0.623-7.453,3.417 c-1.626,3.236-0.321,7.179,2.916,8.805l18.115,9.103c-1.345,7.237,0.849,11.914,2.68,16.871 c12.055,33.228,14.597,45.761,14.976,47.186c-1.635,2.088-3.313,3.837-4.839,6.886c-5.321,10.241-2.332,18.014-0.312,26.704 c2.39,10.278,3.983,17.129,3.983,17.129c0.568,2.431,2.646,4.338,5.268,4.561c0.17,0.014,0.34,0.021,0.508,0.021 c3.045,0,5.633-2.333,5.896-5.423c0,0,0.595-7.009,1.488-17.523c0.223-2.628,0.465-5.476,0.721-8.488 c0.149-1.76,0.052-1.792,0.617-2.735c0.726-1.151,2.011-1.838,2.304-1.838c0.044,0,0.066,0.015,0.06,0.047 c0.004,0.047,0,0.092-0.009,0.131c0.182-0.129,0.547-0.389,0.729-0.519c-0.212,0.204-0.264,0.255-0.263,0.255 s0.059-0.054,0.061-0.054c0,0-0.005,0.005-0.019,0.019c0.201-0.135,2.838-1.915,2.942-1.985c3.646-2.46,7.581-4.036,9.364-14.702 c1.528-9.255,1.585-25.31,1.525-34.693l56.549-14.488c3.273,2.499,6.811,4.417,10.486,5.667l26.763,61.25 c0.852,1.942,2.795,3.269,4.991,3.269c0.163,0,0.327-0.007,0.492-0.022c2.998-0.27,5.21-2.919,4.941-5.917l-5.968-66.375 c11.126-11.892,14.118-32.645,5.854-51.192l1.823-46.416l15.011,1.893c7.444,0.938,14.705-2.273,19.046-8.198 c29.794,5.219,56.373,9.875,58.218,10.199l3.162,57.876l-66.646,9.334c-2.161,0.303-4.2,0.92-6.08,1.796 c-0.703,10.963-3.933,21.378-9.46,30.139c4.254,7.329,12.62,11.706,21.478,10.465l86.124-12.063 c11.015-1.542,19.013-11.262,18.406-22.367l-3.85-70.483c-0.102-1.867,0.66-3.677,2.067-4.909 c1.407-1.232,3.302-1.749,5.139-1.401c2.165,0.409,3.939,1.957,4.639,4.046l25.215,75.259l13.105,106.528 c1.442,11.725,12.111,20.075,23.859,18.633c11.734-1.444,20.077-12.126,18.633-23.86l-13.369-108.67 c-0.175-1.424-0.492-2.827-0.948-4.187l-23.306-69.176l-34.099-19.548c-14.296-8.196-18.651-23.859-17.305-31.964l11.954-71.951 l4.939,74.758l0,0c0.391,5.911,3.7,11.303,8.928,14.3c6.634,3.803,54.101,31.014,61.832,35.446 c8.535,4.894,19.434,1.938,24.341-6.592c0.002-0.004,0.005-0.008,0.007-0.012C445.013,235.882,441.906,224.993,433.466,220.155z M294.19,164.126l-14.978-25.686l21.118-6.778L294.19,164.126z"/></symbol><symbol id="dog-bite-injuries" viewBox="0 0 90 90"><title>dog-bite-injuries</title><path id="Zynga" d="M67.086,0.352c0,0,6.197-0.588,11.054,2.604c1.76-0.084,3.182,0.674,4.104,2.354 c0.923,1.68,2.596,5.713,1.257,8.15c-0.418,0.504-1.341-1.514-1.341-1.514s-0.67,2.438-1.926,3.361 c0.168,5.041-1.842,8.568-2.428,9.746c-0.252,0.672-0.084,1.262,0.166,1.934c0.252,0.672,3.603,12.518,3.435,16.467 c-0.168,3.948-2.177,8.653-3.769,10.25c0.334,3.276-1.173,6.051-1.927,7.395s-2.428,6.385-2.848,8.736 c-0.419,2.354-0.586,4.875-0.083,5.631s2.763,3.109,2.596,4.285c-0.168,1.176-2.596,2.52-3.769,2.52 c-1.172,0-3.603-0.756-4.188-2.354c-0.585-1.597-0.67-4.367-0.25-5.963c0.418-1.599,3.267-13.275,1.593-20.166 c-4.104,1.848-10.972,1.766-10.972,1.766s-1.172,6.133-2.596,9.66c-0.502,0.84-0.419,6.555-0.419,10.166 c0,3.613,1.256,9.242,1.256,9.242s1.759,1.262,1.508,2.856C57.29,89.076,55.278,90,53.52,90c-1.758,0-4.103-1.344-4.103-3.529 c0-2.184,0.333-7.141,0.166-10.754c-0.166-3.613-0.082-5.965-0.669-8.234c-0.587-2.269-2.261-8.233-2.429-12.854 c-0.586,0-1.172-0.42-1.172-0.42s-2.764,3.192-4.689,5.041c0.251,1.26,0.92,3.528,0.92,4.033c0,0.504,0.504,0.924,1.341,1.26 c0.837,0.338,3.432,1.766,3.349,3.192c-0.084,1.429-3.35,1.681-6.197,0.421c-0.669-0.337-3.098-8.484-3.433-9.578 c-0.336-1.093-0.587-1.681-0.167-2.605c0.418-0.922,1.591-3.947,1.424-5.713c-0.168-1.764-3.434-4.537-5.611-4.537 c-1.675,0-4.234,2.568-6.113,4.033c-2.261,1.766-4.856,4.453-5.526,4.873c-0.671,0.422-5.946,10-6.951,12.771 c-0.418,1.093-1.255,6.556-5.692,6.386c-2.01-0.168-3.853-2.353,1.842-6.302c1.445-3.34,3.455-6.807,3.58-7.5 c0.125-0.692,1.633-9.325,4.146-17.518c2.512-8.191,6.218-12.098,6.907-12.666c0.566-0.439,0.88-0.693,0.314-1.008 c-0.564-0.314-6.531-5.42-5.4-16.258c0.188-1.26,0.754-0.945,1.13,1.953c0.377,2.898,2.7,9.705,7.851,11.848 c0.502,0.188,4.208-2.646,23.111-4.033c0.126-3.34,0.629-6.869,0.629-6.869s-1.318-1.008-1.508-3.025 c-0.628,1.01-1.004,1.262-1.821,1.135c-0.815-0.125-0.754-4.031-0.564-6.805c0.189-2.773,3.392-3.971,4.586-4.096 c1.568-0.82,3.265-0.693,3.265-0.693S58.921-0.992,67.086,0.352z"/></symbol><symbol id="dui-accidents" viewBox="0 0 485.74 485.74"><title>dui-accidents</title><path d="M405.785,168.88c14.918-14.617,24.179-34.987,24.179-57.522c0-4.226-0.328-8.375-0.955-12.425l-49.222,14.114 l-6.908,7.955L405.785,168.88z"/><path d="M361.857,31.777v57.227h11.597l47.974-13.756C409.966,52.439,387.99,35.825,361.857,31.777z"/><path d="M311.485,182.395c11.307,6.053,24.221,9.497,37.942,9.497c12.994,0,25.269-3.082,36.137-8.548l-30.562-44.467 L311.485,182.395z"/><path d="M337,31.777c-24.942,3.864-46.099,19.175-57.941,40.395l50.307,16.832H337V31.777z"/><path d="M428.168,32.616C407.136,11.583,379.172,0,349.428,0s-57.708,11.583-78.741,32.616 c-15.661,15.661-26.079,35.167-30.379,56.388h20.417c10-39.667,45.977-69.119,88.705-69.119c50.438,0,91.472,41.034,91.472,91.472 s-41.034,91.472-91.472,91.472c-16.744,0-32.449-4.527-45.964-12.414l-14.493,14.493c17.851,11.586,38.675,17.806,60.457,17.806 c29.744,0,57.708-11.583,78.74-32.615c21.033-21.033,32.616-48.997,32.616-78.741C460.785,81.612,449.202,53.649,428.168,32.616z"/><polygon points="209.68,454.311 209.68,258.165 355.25,112.595 355.25,101.835 24.955,101.835 24.955,112.595 170.527,258.165 170.527,454.311 116.985,454.311 105.469,485.74 274.737,485.74 263.222,454.311 "/><polygon points="140.378,89.004 69.812,18.437 55.668,32.579 112.094,89.004 "/></symbol><symbol id="head-injury-accidents" viewBox="0 0 488.676 488.676"><title>head-injury-accidents</title><path d="M445.678,135.876c-9.7-58.1-51.5-110.7-107.3-128.2c-36-11.2-74.3-8.5-111.5-2.3c-48.8,8.1-103,26.7-122.8,72 c-10.5,24-11.6,51-11.6,77.1c0,62.2-51.9,75.6-51.9,95.3c-0.4,22.5,45.7,25.6,41.4,48c-1.8,10.1-14.6,18.6-10,27.5 c2.3,4.3,7.4,5.8,10.5,9.3c8.9,10.1-5.4,24.8-4.6,38.3c0.8,17,23.4,26.1,39.9,21.3c47.2-13.7,62.7,19.4,65.1,29.8 c5.4,20.9,7,43,4.6,64.7h174.3c-11.5-153.5,26.3-177.7,35.6-188.6C435.278,254.376,455.378,193.576,445.678,135.876z M413.178,193.976l-41.4,41.4c-6.6,6.6-17.8,6.6-24.4,0l-135.2-135.5c-6.6-6.6-6.6-17.8,0-24.4l41.4-41c6.6-6.6,17.8-6.6,24.4,0 l135.1,135.1C420.178,176.176,420.178,187.476,413.178,193.976z"/><rect x="280.803" y="114.049" transform="matrix(-0.7071 -0.7071 0.7071 -0.7071 438.4793 451.5208)" width="63.899" height="41.8"/></symbol><symbol id="large-truck-accident" viewBox="0 0 524.84 524.84"><title>large-truck-accident</title><path d="M40.908,319.876h307.608v42.55H129.123h-4.399c-6.673-18.325-24.265-31.464-44.881-31.464 c-20.307,0-37.683,12.75-44.581,30.66c-8.5-2.458-14.72-10.271-14.72-19.562v-1.807C20.542,328.992,29.658,319.876,40.908,319.876z M113.798,373.972c0,19.595-15.943,35.535-35.543,35.535c-19.587,0-35.535-15.94-35.535-35.535s15.948-35.546,35.535-35.546 C97.855,338.426,113.798,354.377,113.798,373.972z M102.928,373.972c0-13.604-11.067-24.674-24.673-24.674 c-13.604,0-24.665,11.07-24.665,24.674c0,13.598,11.067,24.668,24.665,24.668C91.867,398.64,102.928,387.576,102.928,373.972z M473.01,373.972c0,19.595-15.946,35.535-35.539,35.535c-19.595,0-35.54-15.94-35.54-35.535s15.945-35.546,35.54-35.546 C457.064,338.426,473.01,354.377,473.01,373.972z M462.143,373.972c0-13.604-11.07-24.674-24.666-24.674 c-13.605,0-24.668,11.07-24.668,24.674c0,13.598,11.062,24.668,24.668,24.668C451.073,398.64,462.143,387.576,462.143,373.972z M524.84,271.887v80.355c0,3.749-3.04,6.791-6.788,6.791h-35.505c-7.521-16.536-24.167-28.071-43.497-28.071 c-19.315,0-35.972,11.535-43.497,28.071h-23.948c-3.754,0-6.798-3.042-6.798-6.791V190.86c0-3.754,3.044-6.791,6.798-6.791h89.399 c3.754,0,9.455,1.251,13.587,6.791L524.84,271.887z M493.161,254.234l-30.559-50.703c-2.363-4.367-5.264-6.788-15.628-6.788 h-55.451c-3.75,0-6.793,3.037-6.793,6.788v50.703c0,3.754,3.043,6.791,6.793,6.791h94.839 C490.112,261.025,493.161,257.988,493.161,254.234z M519.631,331.411c0-3.489-2.835-6.336-6.337-6.336s-6.336,2.847-6.336,6.336 v12.008c0,3.501,2.834,6.335,6.336,6.335s6.337-2.834,6.337-6.335V331.411z M0,307.717h348.516V115.333H0V307.717z"/></symbol><symbol id="motorcycle-accident" viewBox="0 0 467.168 467.168"><title>motorcycle-accident</title><path d="M76.849,210.531C34.406,210.531,0,244.937,0,287.388c0,42.438,34.406,76.847,76.849,76.847 c30.989,0,57.635-18.387,69.789-44.819l18.258,14.078c0,0,134.168,0.958,141.538-3.206c0,0-16.65-45.469,4.484-64.688 c2.225-2.024,5.021-4.332,8.096-6.777c-3.543,8.829-5.534,18.45-5.534,28.558c0,42.446,34.403,76.846,76.846,76.846 c42.443,0,76.843-34.415,76.843-76.846c0-42.451-34.408-76.849-76.843-76.849c-0.697,0-1.362,0.088-2.056,0.102 c5.551-3.603,9.093-5.865,9.093-5.865l-5.763-5.127c0,0,16.651-3.837,12.816-12.167c-3.848-8.33-44.19-58.28-44.19-58.28 s7.146-15.373-7.634-26.261l-7.098,15.371c0,0-18.093-12.489-25.295-10.084c-7.205,2.398-18.005,3.603-21.379,8.884l-3.358,3.124 c0,0-0.95,5.528,4.561,13.693c0,0,55.482,17.05,58.119,29.537c0,0,3.848,7.933-12.728,9.844l-3.354,4.328l-8.896,0.479 l-16.082-36.748c0,0-15.381,4.082-23.299,10.323l1.201,6.24c0,0-64.599-43.943-125.362,21.137c0,0-44.909,12.966-76.37-26.897 c0,0-0.479-12.968-76.367-10.565l5.286,5.524c0,0-5.286,0.479-7.444,3.841c-2.158,3.358,1.2,6.961,18.494,6.961 c0,0,39.153,44.668,69.17,42.032l42.743,20.656l18.975,32.42c0,0,0.034,2.785,0.23,7.045c-4.404,0.938-9.341,1.979-14.579,3.09 C139.605,232.602,110.832,210.531,76.849,210.531z M390.325,234.081c29.395,0,53.299,23.912,53.299,53.299 c0,29.39-23.912,53.294-53.299,53.294c-29.394,0-53.294-23.912-53.294-53.294C337.031,257.993,360.932,234.081,390.325,234.081z M76.849,340.683c-29.387,0-53.299-23.913-53.299-53.295c0-29.395,23.912-53.299,53.299-53.299 c22.592,0,41.896,14.154,49.636,34.039c-28.26,6.011-56.31,11.99-56.31,11.99l3.619,19.933l55.339-2.444 C124.365,322.116,102.745,340.683,76.849,340.683z M169.152,295.835c1.571,5.334,3.619,9.574,6.312,11.394l-24.696,0.966 c1.058-3.783,1.857-7.666,2.338-11.662L169.152,295.835z"/></symbol><symbol id="pedestrian-accident" viewBox="0 0 466.015 466.015"><title>pedestrian-accident</title><path d="M329.511,272.46h-2.582v-9.957c0-6.43-5.705-9.626-10.207-10.813l-7.089-13.331c-0.611-1.148-1.741-1.928-3.031-2.091 l-52.144-6.579l-47.986-76.033c-0.733-1.161-2.01-1.865-3.383-1.865H88.744c-1.641,0-3.114,1.002-3.719,2.527L56.902,225.32H29.604 c-12.113,0-19.061,6.947-19.061,19.061v28.143C4.627,273.144,0,278.162,0,284.241v10.344c0,6.496,5.285,11.781,11.781,11.781 h35.574c2.169,19.159,18.466,34.098,38.194,34.098s36.026-14.939,38.195-34.098h93.802c2.169,19.159,18.465,34.098,38.192,34.098 c19.73,0,36.029-14.939,38.198-34.098h35.573c6.495,0,11.779-5.286,11.779-11.782v-10.343 C341.29,277.745,336.006,272.46,329.511,272.46z M85.55,322.465c-11.274,0-20.447-9.173-20.447-20.449 c0-11.275,9.173-20.449,20.447-20.449c11.275,0,20.448,9.173,20.448,20.449C105.998,313.291,96.825,322.465,85.55,322.465z M255.739,322.465c-11.273,0-20.445-9.173-20.445-20.449c0-11.275,9.172-20.449,20.445-20.449c11.276,0,20.451,9.173,20.451,20.448 C276.19,313.291,267.016,322.465,255.739,322.465z"/><path d="M325.151,174.751c0.802,0.11,1.617,0.166,2.424,0.166h0.001c8.8,0,16.341-6.583,17.54-15.314l2.201-16.044 c0.384-2.788-0.342-5.558-2.044-7.799c-1.369-1.804-3.238-3.092-5.365-3.724c-2.485-3.254-6.131-5.394-10.245-5.959 c-0.707-0.097-1.425-0.146-2.134-0.146c-7.735,0-14.362,5.785-15.415,13.458l-2.113,15.399 C308.674,164.467,315.47,173.423,325.151,174.751z"/><path d="M459.338,218.199l-34.713-15.42c-0.595-0.322-1.223-0.579-1.868-0.79c-0.151-0.051-0.301-0.11-0.454-0.143 c-0.984-0.276-2.008-0.436-3.056-0.436c-2.293,0-4.505,0.688-6.398,1.991c-0.03,0.021-0.061,0.042-0.091,0.064l-15.741,11.487 l-22.916-26.295l12.288-1.116c2.606-0.141,5.01-1.276,6.776-3.203c0.256-0.28,16.279-21.04,16.279-21.04 c1.635-2.118,2.348-4.746,2.007-7.4c-0.341-2.654-1.695-5.017-3.812-6.65c-1.77-1.367-3.887-2.09-6.12-2.09 c-3.13,0-6.022,1.42-7.933,3.895l-13.02,16.862c0,0-30.316,2.797-30.592,2.886c-2.029,0.441-3.933,1.376-5.52,2.759l-10.389,9.054 c-1.921,1.674-3.247,3.851-3.864,6.271c-0.169,0.375-4.642,41.256-4.645,41.334c-0.119,2.471,0.597,4.852,2.021,6.83 c0.145,0.259,17.205,19.24,17.205,19.24c0.064,0.072,0.133,0.143,0.203,0.21c2.025,1.939,4.685,3.007,7.487,3.007 c2.939,0,5.788-1.217,7.814-3.334l0.201-0.209c4.088-4.27,3.977-11.05-0.219-15.191l-12.352-13.692l0.923-8.595l40.168,47.594 l-9.174,24.234c-1.211,2.696-1.322,5.703-0.31,8.486c1.031,2.836,3.104,5.101,5.817,6.366l0.297,0.14 c1.508,0.704,3.112,1.06,4.767,1.06c4.375,0,8.396-2.561,10.243-6.525c0.042-0.09,12.214-32.231,12.214-32.231 c0.255-0.853,0.286-1.368,0.347-1.702c0.538-2.97-0.075-5.971-1.779-8.461c-0.071-0.105-12.459-14.958-12.459-14.958l21.761-16.39 l29.224,12.982c1.472,0.663,3.031,0.999,4.637,0.999c4.436,0,8.48-2.615,10.287-6.628l0.142-0.309 C467.577,227.464,465.035,220.764,459.338,218.199z"/><path d="M262.91,210.579l35.5,15c0.762,0.322,1.554,0.475,2.332,0.475c2.339,0,4.563-1.377,5.53-3.666 c1.289-3.053-0.14-6.573-3.192-7.862l-35.5-15c-3.051-1.29-6.572,0.14-7.862,3.191C258.429,205.77,259.857,209.29,262.91,210.579z"/><path d="M298.323,201.623c1.026,2.165,3.18,3.431,5.426,3.431c0.861,0,1.736-0.187,2.566-0.58c2.994-1.419,4.271-4.997,2.852-7.992 l-32-67.5c-1.42-2.995-4.998-4.271-7.992-2.851c-2.994,1.419-4.271,4.997-2.852,7.992L298.323,201.623z"/><path d="M419.25,178.053c1.174,0,2.36-0.344,3.4-1.06l37-25.5c2.729-1.88,3.415-5.617,1.535-8.345 c-1.881-2.729-5.617-3.416-8.346-1.536l-37,25.5c-2.729,1.88-3.415,5.617-1.535,8.345 C415.469,177.146,417.344,178.053,419.25,178.053z"/><path d="M436.469,182.678c-3.245-0.674-6.421,1.407-7.098,4.65c-0.676,3.244,1.406,6.422,4.65,7.098l24,5 c0.413,0.086,0.824,0.127,1.229,0.127c2.782,0,5.278-1.946,5.868-4.777c0.676-3.244-1.406-6.422-4.65-7.098L436.469,182.678z"/></symbol><symbol id="personal-injury-2" viewBox="0 0 461.243 461.243"><title>personal-injury-2</title><path d="M351.876,198.454l-62.571-5.042l-22.256-32.129l0.279-31.761c0.142-16.182-12.86-29.416-29.042-29.558l-52.251-0.46 c-16.182-0.143-29.416,12.86-29.558,29.042l-0.254,28.815l19.868-28.305l-32.006,80.566c-2.501,6.558-1.549,13.918,2.518,19.618 l49.513,69.447c7.646,10.718,23.301,11.845,32.379,2.084c6.657-7.157,7.545-18.197,1.693-26.396l-42.05-58.93l28.376-74.368 l-1.965,17.922c-0.759,6.911-4.826,43.964-5.6,51.017c16.513,23.142,2.99,4.19,25.695,36.011l31.131-0.084l0.529-0.001h0.001 l0.131-14.857c2.86,1.837,6.158,2.976,9.628,3.255l72.451,5.838c11.558,0.926,21.616-7.689,22.542-19.18 C371.985,209.475,363.397,199.383,351.876,198.454z"/><path d="M286.834,336.298c0.587,4.984,0.899,10.051,0.899,15.189c0,11.521-1.527,22.69-4.375,33.325v50.955 c0,13.87,11.244,25.115,25.115,25.115c13.87,0,25.115-11.244,25.115-25.115v-78.068l-41.466-21.415L286.834,336.298z"/><path d="M398.634,312.148l-23.048,44.629c11.119,5.74,24.913,2.434,32.134-7.974 C416.648,335.942,411.625,318.644,398.634,312.148z"/><path d="M319.628,271.346l-5.056-2.612c-3.566-1.843-7.521-2.801-11.534-2.801c-0.019,0-0.039,0-0.058,0l-47.688,0.129 l0.001,0.001c12.64,14.265,22.18,31.336,27.538,50.154l13.643-0.037L319.628,271.346z"/><circle cx="212.885" cy="43.375" r="43.375"/><path d="M88.5,166.698h19.39v66.3c5.175-2.231,10.523-4.134,16.019-5.68c-2.993-11.597-0.306-23.486,3.732-29.238l13.174-18.768 v-29.077c0-9.092-7.37-16.463-16.463-16.463H88.5c-9.092,0-16.463,7.37-16.463,16.463 C72.037,159.328,79.408,166.698,88.5,166.698z"/><path d="M246.625,310.231c-3.05,4.316-6.846,7.953-11.381,10.858c2.783,6.976,4.656,14.41,5.43,22.167 c-10.413,0-39.876,0-51.182,0c4.195-2.422,4.593-2.652,27.519-15.888c-8.606,0.8-16.9-1.077-24.046-5.127l-11.704,6.758 l6.113-10.587c-5.199-4.205-7.31-7.63-11.341-13.283l-5.805,10.054l-3.225,5.586c0-10.319,0-18.169,0-28.305l-16.463-23.091 l-17.523-24.578c-48.133,11.62-83.999,55.044-83.999,106.694c0,60.518,49.236,109.754,109.754,109.754 s109.754-49.236,109.754-109.754c0-20.427-5.616-39.565-15.376-55.962C251.977,300.757,249.801,305.737,246.625,310.231z M150.54,269.585c0,10.413,0,39.877,0,51.182c-5.751-9.961-20.549-35.591-25.577-44.301 C132.905,272.873,141.505,270.487,150.54,269.585z M110.718,284.718c5.042,8.732,19.907,34.48,25.565,44.281 c-9.924-5.729-35.567-20.535-44.281-25.565C97.197,296.236,103.52,289.912,110.718,284.718z M83.75,317.679 c29.096,16.799,14.891,8.597,44.302,25.578c-12.193,0-41.22,0-51.183,0C77.771,334.22,80.157,325.621,83.75,317.679z M76.869,359.719c10.413,0,39.876,0,51.182,0c-29.529,17.049-17.562,10.139-44.301,25.577 C80.157,377.354,77.771,368.755,76.869,359.719z M92.002,399.542c17.645-10.187,0.115-0.066,44.281-25.566 c-5.73,9.924-20.535,35.568-25.566,44.281C103.52,413.063,97.197,406.739,92.002,399.542z M150.54,433.39 c-9.036-0.901-17.635-3.287-25.577-6.881c15.446-26.753,8.514-14.746,25.577-44.3C150.54,394.402,150.54,423.449,150.54,433.39z M144.321,351.488c0-7.968,6.482-14.451,14.451-14.451c7.968,0,14.451,6.482,14.451,14.451c0,7.968-6.482,14.451-14.451,14.451 C150.804,365.939,144.321,359.457,144.321,351.488z M167.003,433.39c0-10.414,0-39.878,0-51.182 c17.049,29.529,10.14,17.562,25.578,44.301C184.639,430.103,176.039,432.489,167.003,433.39z M206.826,418.257 c-5.042-8.732-19.907-34.48-25.566-44.281c9.924,5.73,35.567,20.535,44.281,25.566 C220.347,406.739,214.024,413.063,206.826,418.257z M233.793,385.296c-8.71-5.029-34.34-19.826-44.301-25.577 c12.194,0,41.241,0,51.182,0C239.773,368.755,237.387,377.354,233.793,385.296z"/><path d="M367.276,294.874l-19.525-10.083l-39.283,38.404l19.525,10.083l10.194-9.966l4.862,17.741 c19.87,10.262,17.271,8.92,22.196,11.463l2.394-0.656l-12.394-45.225L367.276,294.874z"/></symbol><symbol id="personal-injury-3" viewBox="0 0 480.545 480.545"><title>personal-injury-3</title><g> <path style="fill:#010002;" d="M243.236,163.644c45.105,0,81.773-36.692,81.773-81.773C325.009,36.741,288.341,0,243.236,0 c-45.081,0-81.773,36.741-81.773,81.871C161.462,126.96,198.155,163.644,243.236,163.644z M243.236,11.209 c38.903,0,70.564,31.693,70.564,70.662c0,38.895-31.661,70.548-70.564,70.548c-38.92,0-70.572-31.653-70.572-70.548 C172.672,42.903,204.316,11.209,243.236,11.209z"/> </g><g> <path style="fill:#010002;" d="M93.857,406.664l-4.812,0.024c-6.812,0-12.168-1.967-15.932-5.828 c-6.901-7.08-6.812-18.46-6.804-18.81l0.252-126.456c0.179-1.756,3.674-29.442,30.848-48.373L93.857,406.664z M105.066,406.234 l3.682-205.206c7.812-2.691,28.735-8.925,58.851-11.112l44.171,165.758c8.519,19.549,15.144,44.341,11.437,50.023 c-0.187,0.26-0.35,0.528-1.406,0.528H105.066V406.234z M414.229,454.005c0,14.64-11.908,26.54-26.515,26.54 c-14.64,0-26.548-11.9-26.548-26.824l-0.057-5.592V248.677h-12.811l0.098,227.803l-200.768-0.146l0.033-58.908h74.133h23.508 c19.183,0,34.798-15.623,34.798-34.815s-15.615-34.79-34.798-34.79h-24.093l-42.082-158.19h136.828 c3.829-0.024,91.788-0.26,98.283,76.709v187.664H414.229z M225.239,359.031h20.061c13.014,0,23.589,10.583,23.589,23.581 c0,13.038-10.583,23.613-23.589,23.613l-10.616,0.024C237.481,393.195,230.198,371.517,225.239,359.031z"/> </g></symbol><symbol id="personal-injury-4" viewBox="0 0 460.476 460.476"><title>personal-injury-4</title><path d="M219.978,0.899C217.364,0.317,214.65,0,211.86,0c-6.688,0-12.958,1.773-18.381,4.861l9.605,9.248L219.978,0.899z"/><path d="M244.679,19.667c-2.394-4.469-5.676-8.387-9.607-11.53l-15.318,11.978C227.732,19.122,236.124,18.844,244.679,19.667z"/><path d="M182.165,14.79c-3.965,5.243-6.573,11.567-7.303,18.454c5.236-2.395,11.633-5,18.875-7.311L182.165,14.79z"/><path d="M176.59,49.07c4.953,14.734,18.867,25.352,35.27,25.352c20.551,0,37.211-16.66,37.211-37.211 c0-0.623-0.017-1.241-0.047-1.857C219.651,30.476,190.626,42.114,176.59,49.07z"/><path d="M163.867,168.289l0.008,270.642c0,11.899,9.646,21.545,21.546,21.545s21.546-9.646,21.546-21.545V266.714h9.303V438.93 c0,11.899,9.646,21.545,21.546,21.545c11.899,0,21.546-9.646,21.546-21.545l-0.393-255.965 C258.969,182.965,212.082,194.625,163.867,168.289z"/><path d="M337.963,94.065l-46-75.898c-5.138-8.48-16.182-11.188-24.66-6.048c-8.48,5.14-11.188,16.18-6.049,24.661l31.982,52.77 l-34.648,5.102c-10.321,0-71.327,0-81.525,0c4.763,6.899,16.142,22.303,31.406,35.909c14.207,12.664,31.774,23.762,50.5,24.968 V130.56c3.198,0-3.595,0.861,66.256-9.425c5.951-0.876,11.067-4.675,13.629-10.118C341.415,105.574,341.081,99.21,337.963,94.065 z"/><path d="M120.847,132.376c-0.373,3.316-0.217-6.174-0.934,136.456c-0.05,9.916,7.948,17.995,17.864,18.045 c0.03,0,0.061,0,0.092,0c9.873,0,17.902-7.98,17.952-17.864l0.529-105.15C144.206,156.204,132.131,145.972,120.847,132.376z"/></symbol><symbol id="personal-injury-5" viewBox="0 0 459.467 459.467"><title>personal-injury-5</title><path d="M104.942,166.209h19.306v66.01c10.305-4.442,21.303-7.569,32.783-9.175v-73.227c0-9.052-7.339-16.391-16.391-16.391 h-35.697c-9.052,0-16.391,7.339-16.391,16.391C88.551,158.87,95.889,166.209,104.942,166.209z"/><circle cx="240.324" cy="44.342" r="44.342"/><path d="M393.255,174.117c-2.636-10.778-13.51-17.373-24.289-14.739l-67.502,16.517l-47.917-44.131l37.411,19.743l0.063-10.548 c0.099-16.543-13.233-30.034-29.775-30.132l-53.417-0.318c-16.543-0.098-30.034,13.233-30.132,29.776l-0.485,81.539 c57.986,1.027,106.527,40.632,121.39,93.904l12.587,0.963l-17.281,114.851c-2.051,13.156,6.95,25.483,20.106,27.534 c13.148,2.052,25.482-6.947,27.533-20.107l21.298-140.612c2.164-13.872-7.962-26.678-21.98-27.751l-50.591-3.871l0.161-26.992 c-8.887-0.15-17.129-4.8-21.877-12.217l-42.229-66.205l55.839,51.427c4.922,4.533,11.815,6.344,18.386,4.737l77.964-19.077 C389.294,195.769,395.893,184.894,393.255,174.117z"/><path d="M174.907,240.917c-60.255,0-109.275,49.021-109.275,109.275c0,60.254,49.02,109.275,109.275,109.275 s109.275-49.021,109.275-109.275C284.182,289.938,235.162,240.917,174.907,240.917z M241.385,302.347 c-17.573,10.146-0.109,0.063-44.088,25.454c21.684-37.557,13.157-22.787,25.455-44.088 C229.918,288.885,236.214,295.181,241.385,302.347z M183.103,268.646c8.996,0.897,17.558,3.273,25.466,6.851 c-21.797,37.754-3.584,6.207-25.466,44.108C183.103,309.897,183.103,279.57,183.103,268.646z M166.711,268.646 c0,10.364,0,39.693,0,50.959c-22.506-38.983-12.87-22.293-25.466-44.108C149.153,271.919,157.715,269.544,166.711,268.646z M127.062,283.713c11.993,20.771,6.817,11.807,25.454,44.088c-43.971-25.387-26.52-15.311-44.088-25.454 C113.6,295.181,119.896,288.885,127.062,283.713z M100.212,316.53c26.651,15.387,14.655,8.461,44.108,25.466 c-12.143,0-41.059,0-50.959,0C94.259,333,96.634,324.438,100.212,316.53z M93.361,358.388c10.364,0,39.693,0,50.959,0 c-29.358,16.95-15.131,8.736-44.108,25.466C96.634,375.946,94.259,367.384,93.361,358.388z M108.429,398.037 c17.573-10.146,0.111-0.064,44.088-25.454c-18.8,32.562-13.317,23.064-25.455,44.088 C119.896,411.499,113.6,405.203,108.429,398.037z M166.711,431.738c-8.996-0.897-17.558-3.273-25.466-6.851 c12.595-21.814,2.959-5.125,25.466-44.108C166.711,392.922,166.711,421.837,166.711,431.738z M160.52,350.192 c0-7.934,6.454-14.388,14.387-14.388c7.934,0,14.388,6.454,14.388,14.388c0,7.934-6.454,14.388-14.388,14.388 C166.974,364.58,160.52,358.126,160.52,350.192z M183.103,431.738c0-10.364,0-39.693,0-50.959 c22.506,38.983,12.87,22.293,25.466,44.108C200.661,428.465,192.099,430.84,183.103,431.738z M222.752,416.671 c-11.993-20.771-6.817-11.806-25.454-44.088c43.973,25.388,26.52,15.311,44.088,25.454 C236.214,405.203,229.918,411.499,222.752,416.671z M249.602,383.854c-28.977-16.73-14.75-8.516-44.108-25.466 c12.143,0,41.059,0,50.959,0C255.555,367.384,253.18,375.946,249.602,383.854z M205.493,341.996 c28.732-16.588,15.486-8.941,44.108-25.466c3.578,7.908,5.953,16.47,6.851,25.466 C246.088,341.996,216.76,341.996,205.493,341.996z"/></symbol><symbol id="personal-injury" viewBox="0 0 489.9 489.9"><title>personal-injury</title><circle cx="245.15" cy="76.2" r="76.2"/><path d="M151.45,301.7v39.2h47.4l-33-144.2c-57.5,14.4-97.2,49.4-97.2,118.2v85.5c0,7.4,5.8,13.2,13.2,13.2h133.3l-12.1-53.3 h-77.7C128.95,337,136.35,321.1,151.45,301.7z"/><path d="M235.85,414h22.9c14.8,0,26.8-12.1,26.8-26.8s-12.1-26.8-26.8-26.8h-35.4L235.85,414z"/><polygon points="203.15,360.7 223.35,360.7 219.15,340.9 198.85,340.9 "/><path d="M245.15,188.1c-21,0-41.2,1.6-59.9,4.7l33.9,148.1h39.6c25.7,0,46.3,21,46.3,46.3c0,25.7-21,46.3-46.3,46.3h-107.3v56.4 h187.4V301.7c24.1,31.5,28.4,128.3,28.8,188.1h53.6V314.9C421.25,217.7,342.35,188.1,245.15,188.1z"/></symbol><symbol id="soft-tissue-injury" viewBox="0 0 181.429 181.429"><title>soft-tissue-injury</title><path d="M134.045,66.614c-3.707-1.853-8.211-0.35-10.063,3.354l-23.078,46.156H75.92c-2.841,0-5.438,1.605-6.708,4.146 l-25.151,50.302c-1.853,3.705-0.351,8.21,3.354,10.062c1.077,0.539,2.221,0.794,3.348,0.794c2.751,0,5.4-1.52,6.714-4.148 l23.079-46.156h24.985c2.841,0,5.438-1.605,6.708-4.146l25.15-50.302C139.252,72.972,137.75,68.467,134.045,66.614z"/><path d="M143.162,0.718c-13.832,0-25.045,11.212-25.045,25.044c0,13.831,11.213,25.043,25.045,25.043 c13.831,0,25.043-11.212,25.043-25.043C168.205,11.931,156.993,0.718,143.162,0.718z M143.162,35.806 c-5.539,0-10.045-4.505-10.045-10.043c0-5.538,4.506-10.044,10.045-10.044c5.538,0,10.043,4.506,10.043,10.044 C153.205,31.3,148.7,35.806,143.162,35.806z"/><path d="M104.121,45.446C104.121,20.387,83.732,0,58.671,0c-25.06,0-45.447,20.387-45.447,45.446 c0,25.061,20.388,45.449,45.447,45.449C83.732,90.895,104.121,70.507,104.121,45.446z M28.224,45.446 C28.224,28.658,41.883,15,58.671,15c16.79,0,30.449,13.658,30.449,30.446c0,16.79-13.66,30.449-30.449,30.449 C41.883,75.895,28.224,62.236,28.224,45.446z"/></symbol><symbol id="spinal-cord-accidents" viewBox="0 0 280.919 280.919"><title>spinal-cord-accidents</title><g> <path d="M213.999,23.952h-12.268V9.597c0-3.36-1.709-6.418-4.563-8.175c-2.82-1.74-6.409-1.894-9.37-0.399 c-9.173,4.633-27.754,7.627-47.338,7.627c-19.585,0-38.166-2.994-47.343-7.629c-2.954-1.49-6.54-1.34-9.363,0.396 c-2.859,1.762-4.566,4.819-4.566,8.18v14.355H66.92c-8.656,0-15.698,7.042-15.698,15.698v10.91 c0,8.656,7.042,15.698,15.698,15.698h12.268v7.164c0,5.686,3.323,10.924,8.466,13.345c17.352,8.167,47.033,8.581,52.807,8.581 c16.676,0,39.3-2.253,52.786-8.577c5.154-2.417,8.485-7.658,8.485-13.354v-7.159h12.268c8.656,0,15.698-7.042,15.698-15.698V39.65 C229.697,30.994,222.655,23.952,213.999,23.952z M214.697,50.56c0,0.385-0.313,0.698-0.698,0.698h-19.768 c-4.143,0-7.5,3.357-7.5,7.5v14.5c-11.3,5.231-31.962,7.09-46.271,7.09c-14.341,0-35.023-1.857-46.272-7.085V58.759 c0-4.143-3.357-7.5-7.5-7.5H66.92c-0.385,0-0.698-0.313-0.698-0.698V39.65c0-0.385,0.313-0.698,0.698-0.698h19.768 c4.143,0,7.5-3.357,7.5-7.5V17.579c11.762,3.854,28.312,6.07,46.272,6.07s34.512-2.216,46.271-6.069v13.872 c0,4.143,3.357,7.5,7.5,7.5h19.768c0.385,0,0.698,0.313,0.698,0.698V50.56z"/> </g><g> <path d="M212.094,116.558h-10.362v-14.355c0-3.311-1.751-6.444-4.563-8.175c-2.82-1.74-6.409-1.894-9.37-0.399 c-9.173,4.633-27.754,7.627-47.338,7.627c-19.585,0-38.166-2.994-47.343-7.629c-2.961-1.493-6.55-1.34-9.355,0.393 c-2.821,1.733-4.574,4.869-4.574,8.184v14.355H68.825c-9.707,0-17.604,7.896-17.604,17.604v7.101 c0,9.706,7.896,17.603,17.604,17.603h10.362v7.164c0,5.686,3.323,10.924,8.466,13.345c17.352,8.167,47.033,8.581,52.807,8.581 c16.678,0,39.303-2.253,52.786-8.577c5.154-2.417,8.485-7.658,8.485-13.354v-7.159h10.362c9.707,0,17.604-7.896,17.604-17.603 v-7.101C229.697,124.454,221.801,116.558,212.094,116.558z M214.697,141.262c0,1.435-1.168,2.603-2.604,2.603h-17.862 c-4.143,0-7.5,3.357-7.5,7.5v14.5c-11.297,5.231-31.961,7.09-46.271,7.09c-14.341,0-35.023-1.857-46.272-7.085v-14.505 c0-4.143-3.357-7.5-7.5-7.5H68.825c-1.436,0-2.604-1.168-2.604-2.603v-7.101c0-1.436,1.168-2.604,2.604-2.604h17.862 c4.143,0,7.5-3.357,7.5-7.5v-13.873c11.762,3.854,28.312,6.07,46.272,6.07s34.512-2.216,46.271-6.069v13.872 c0,4.143,3.357,7.5,7.5,7.5h17.862c1.436,0,2.604,1.168,2.604,2.604V141.262z"/> </g><g> <path d="M108.576,26.972c-4.143,0-7.5,3.357-7.5,7.5v28.832c0,4.143,3.357,7.5,7.5,7.5s7.5-3.357,7.5-7.5V34.472 C116.076,30.329,112.719,26.972,108.576,26.972z"/> </g><g> <path d="M108.576,120.294c-4.143,0-7.5,3.357-7.5,7.5v27.832c0,4.143,3.357,7.5,7.5,7.5s7.5-3.357,7.5-7.5v-27.832 C116.076,123.651,112.719,120.294,108.576,120.294z"/> </g><g> <path d="M212.094,209.522h-10.362v-14.356c0-3.311-1.751-6.444-4.57-8.18c-2.82-1.734-6.406-1.887-9.363-0.395 c-9.173,4.633-27.754,7.627-47.338,7.627c-19.585,0-38.166-2.994-47.343-7.629c-2.961-1.493-6.55-1.34-9.355,0.393 c-2.821,1.733-4.574,4.869-4.574,8.184v14.356H68.825c-9.707,0-17.604,7.896-17.604,17.603v7.101 c0,9.707,7.896,17.604,17.604,17.604h10.362v7.163c0,5.684,3.322,10.922,8.467,13.346c17.354,8.167,47.032,8.581,52.806,8.581 c16.677,0,39.301-2.253,52.786-8.578c5.154-2.417,8.485-7.658,8.485-13.354v-7.158h10.362c9.707,0,17.604-7.896,17.604-17.604 v-7.101C229.697,217.419,221.801,209.522,212.094,209.522z M214.697,234.225c0,1.436-1.168,2.604-2.604,2.604h-17.862 c-4.143,0-7.5,3.357-7.5,7.5v14.499c-11.299,5.232-31.962,7.091-46.271,7.091c-14.341,0-35.023-1.857-46.272-7.085v-14.505 c0-4.143-3.357-7.5-7.5-7.5H68.825c-1.436,0-2.604-1.168-2.604-2.604v-7.101c0-1.436,1.168-2.603,2.604-2.603h17.862 c4.143,0,7.5-3.357,7.5-7.5v-13.873c11.762,3.854,28.312,6.069,46.272,6.069s34.512-2.216,46.271-6.069v13.873 c0,4.143,3.357,7.5,7.5,7.5h17.862c1.436,0,2.604,1.167,2.604,2.603V234.225z"/> </g><g> <path d="M108.576,213.258c-4.143,0-7.5,3.357-7.5,7.5v27.833c0,4.143,3.357,7.5,7.5,7.5s7.5-3.357,7.5-7.5v-27.833 C116.076,216.615,112.719,213.258,108.576,213.258z"/> </g></symbol><symbol id="wrongful-death" viewBox="0 0 612 612"><title>wrongful-death</title><path d="M122.855,335.491c3.514,11.463,7.147,23.318,8.96,35.258c0.741,4.866,3.647,40.261,5.218,59.707 c0.602,7.451,6.252,13.508,13.643,14.626l25.821,3.904c3.723,0.563,6.692,3.402,7.417,7.097l3.402,17.401 c1.479,7.563,8.108,13.018,15.814,13.014l200.241-0.119c7.572-0.005,14.118-5.283,15.726-12.682l3.896-17.915 c0.86-3.536,3.782-6.193,7.383-6.717l31.437-4.566c7.554-1.097,13.3-7.344,13.759-14.964c1.206-20.008,3.457-56.434,4.155-61.425 c1.653-11.784,5.131-23.432,8.49-34.764c4.709-15.857,9.578-32.225,9.578-49.248c0.006-108.709-86.402-197.132-192.608-197.132 s-192.613,88.471-192.613,197.204C112.575,301.952,117.801,319.004,122.855,335.491z M330.285,325.459 c1.221-30.877,28.91-38.641,59.787-37.421c30.877,1.221,53.249,10.965,52.028,41.842c-1.221,30.877-27.241,54.918-58.118,53.697 C353.105,382.356,329.064,356.336,330.285,325.459z M312.119,386.048l20.042,29.679c1.778,2.632,2.021,6.011,0.639,8.871 l-2.875,5.951c-1.489,3.081-4.609,5.038-8.03,5.038h-17.167h-17.167c-3.422,0-6.542-1.958-8.03-5.038l-2.875-5.951 c-1.382-2.86-1.138-6.238,0.639-8.871l20.042-29.679C300.873,380.811,308.583,380.811,312.119,386.048z M220.299,288.039 c30.877-1.221,58.566,6.543,59.787,37.421c1.221,30.877-22.82,56.897-53.697,58.118c-30.877,1.221-56.897-22.82-58.118-53.697 C167.05,299.003,189.422,289.259,220.299,288.039z"/><path d="M556.35,58.611c2.402-14.75-2.089-30.405-13.499-41.757c-18.326-18.234-48.224-18.566-66.929-0.721 c-19.558,18.659-19.834,49.646-0.828,68.652l-17.47,17.47c-6.98,6.981-6.98,18.299,0,25.28l29.802,29.802 c6.98,6.981,18.299,6.981,25.279,0l17.47-17.47c19.007,19.007,49.994,18.73,68.652-0.828 c17.845-18.705,17.512-48.604-0.722-66.929C586.754,60.7,571.1,56.209,556.35,58.611z"/><path d="M81.824,139.866l17.47,17.47c6.981,6.981,18.299,6.981,25.279,0l29.802-29.802c6.981-6.981,6.981-18.299,0-25.28 l-17.47-17.47c19.007-19.006,18.73-49.993-0.828-68.652C117.372-1.712,87.474-1.38,69.148,16.854 C57.739,28.206,53.248,43.861,55.65,58.611C40.9,56.209,25.246,60.7,13.893,72.109c-18.234,18.325-18.567,48.224-0.722,66.929 C31.83,158.596,62.817,158.872,81.824,139.866z"/><path d="M598.829,472.962c-18.659-19.559-49.646-19.834-68.652-0.828l-17.47-17.47c-6.981-6.981-18.299-6.981-25.279,0 l-29.802,29.802c-6.98,6.981-6.98,18.299,0,25.28l17.47,17.47c-19.007,19.007-18.73,49.994,0.828,68.652 c18.705,17.845,48.604,17.513,66.929-0.721c11.41-11.352,15.901-27.007,13.499-41.757c14.75,2.402,30.404-2.089,41.756-13.499 C616.341,521.565,616.673,491.667,598.829,472.962z"/><path d="M55.65,553.389c-2.402,14.75,2.089,30.405,13.499,41.757c18.326,18.234,48.224,18.566,66.929,0.721 c19.558-18.659,19.834-49.646,0.828-68.652l17.47-17.47c6.981-6.98,6.981-18.299,0-25.28l-29.802-29.802 c-6.981-6.981-18.299-6.981-25.279,0l-17.47,17.47c-19.007-19.007-49.994-18.731-68.652,0.828 c-17.845,18.705-17.513,48.603,0.721,66.929C25.246,551.3,40.9,555.791,55.65,553.389z"/></symbol></svg>