<?xml version="1.0" encoding="iso-8859-1"?>
<!-- Generator: Adobe Illustrator 19.0.0, SVG Export Plug-In . SVG Version: 6.00 Build 0)  -->
<svg version="1.1" id="Layer_1" xmlns="http://www.w3.org/2000/svg" xmlns:xlink="http://www.w3.org/1999/xlink" x="0px" y="0px"
	 viewBox="0 0 461.243 461.243" style="enable-background:new 0 0 461.243 461.243;" xml:space="preserve">
<g>
	<g>
		<g>
			<path d="M351.876,198.454l-62.571-5.042l-22.256-32.129l0.279-31.761c0.142-16.182-12.86-29.416-29.042-29.558l-52.251-0.46
				c-16.182-0.143-29.416,12.86-29.558,29.042l-0.254,28.815l19.868-28.305l-32.006,80.566c-2.501,6.558-1.549,13.918,2.518,19.618
				l49.513,69.447c7.646,10.718,23.301,11.845,32.379,2.084c6.657-7.157,7.545-18.197,1.693-26.396l-42.05-58.93l28.376-74.368
				l-1.965,17.922c-0.759,6.911-4.826,43.964-5.6,51.017c16.513,23.142,2.99,4.19,25.695,36.011l31.131-0.084l0.529-0.001h0.001
				l0.131-14.857c2.86,1.837,6.158,2.976,9.628,3.255l72.451,5.838c11.558,0.926,21.616-7.689,22.542-19.18
				C371.985,209.475,363.397,199.383,351.876,198.454z"/>
			<path d="M286.834,336.298c0.587,4.984,0.899,10.051,0.899,15.189c0,11.521-1.527,22.69-4.375,33.325v50.955
				c0,13.87,11.244,25.115,25.115,25.115c13.87,0,25.115-11.244,25.115-25.115v-78.068l-41.466-21.415L286.834,336.298z"/>
			<path d="M398.634,312.148l-23.048,44.629c11.119,5.74,24.913,2.434,32.134-7.974
				C416.648,335.942,411.625,318.644,398.634,312.148z"/>
			<path d="M319.628,271.346l-5.056-2.612c-3.566-1.843-7.521-2.801-11.534-2.801c-0.019,0-0.039,0-0.058,0l-47.688,0.129
				l0.001,0.001c12.64,14.265,22.18,31.336,27.538,50.154l13.643-0.037L319.628,271.346z"/>
			<circle cx="212.885" cy="43.375" r="43.375"/>
			<path d="M88.5,166.698h19.39v66.3c5.175-2.231,10.523-4.134,16.019-5.68c-2.993-11.597-0.306-23.486,3.732-29.238l13.174-18.768
				v-29.077c0-9.092-7.37-16.463-16.463-16.463H88.5c-9.092,0-16.463,7.37-16.463,16.463
				C72.037,159.328,79.408,166.698,88.5,166.698z"/>
			<path d="M246.625,310.231c-3.05,4.316-6.846,7.953-11.381,10.858c2.783,6.976,4.656,14.41,5.43,22.167
				c-10.413,0-39.876,0-51.182,0c4.195-2.422,4.593-2.652,27.519-15.888c-8.606,0.8-16.9-1.077-24.046-5.127l-11.704,6.758
				l6.113-10.587c-5.199-4.205-7.31-7.63-11.341-13.283l-5.805,10.054l-3.225,5.586c0-10.319,0-18.169,0-28.305l-16.463-23.091
				l-17.523-24.578c-48.133,11.62-83.999,55.044-83.999,106.694c0,60.518,49.236,109.754,109.754,109.754
				s109.754-49.236,109.754-109.754c0-20.427-5.616-39.565-15.376-55.962C251.977,300.757,249.801,305.737,246.625,310.231z
				 M150.54,269.585c0,10.413,0,39.877,0,51.182c-5.751-9.961-20.549-35.591-25.577-44.301
				C132.905,272.873,141.505,270.487,150.54,269.585z M110.718,284.718c5.042,8.732,19.907,34.48,25.565,44.281
				c-9.924-5.729-35.567-20.535-44.281-25.565C97.197,296.236,103.52,289.912,110.718,284.718z M83.75,317.679
				c29.096,16.799,14.891,8.597,44.302,25.578c-12.193,0-41.22,0-51.183,0C77.771,334.22,80.157,325.621,83.75,317.679z
				 M76.869,359.719c10.413,0,39.876,0,51.182,0c-29.529,17.049-17.562,10.139-44.301,25.577
				C80.157,377.354,77.771,368.755,76.869,359.719z M92.002,399.542c17.645-10.187,0.115-0.066,44.281-25.566
				c-5.73,9.924-20.535,35.568-25.566,44.281C103.52,413.063,97.197,406.739,92.002,399.542z M150.54,433.39
				c-9.036-0.901-17.635-3.287-25.577-6.881c15.446-26.753,8.514-14.746,25.577-44.3C150.54,394.402,150.54,423.449,150.54,433.39z
				 M144.321,351.488c0-7.968,6.482-14.451,14.451-14.451c7.968,0,14.451,6.482,14.451,14.451c0,7.968-6.482,14.451-14.451,14.451
				C150.804,365.939,144.321,359.457,144.321,351.488z M167.003,433.39c0-10.414,0-39.878,0-51.182
				c17.049,29.529,10.14,17.562,25.578,44.301C184.639,430.103,176.039,432.489,167.003,433.39z M206.826,418.257
				c-5.042-8.732-19.907-34.48-25.566-44.281c9.924,5.73,35.567,20.535,44.281,25.566
				C220.347,406.739,214.024,413.063,206.826,418.257z M233.793,385.296c-8.71-5.029-34.34-19.826-44.301-25.577
				c12.194,0,41.241,0,51.182,0C239.773,368.755,237.387,377.354,233.793,385.296z"/>
			<path d="M367.276,294.874l-19.525-10.083l-39.283,38.404l19.525,10.083l10.194-9.966l4.862,17.741
				c19.87,10.262,17.271,8.92,22.196,11.463l2.394-0.656l-12.394-45.225L367.276,294.874z"/>
		</g>
	</g>
</g>
<g>
</g>
<g>
</g>
<g>
</g>
<g>
</g>
<g>
</g>
<g>
</g>
<g>
</g>
<g>
</g>
<g>
</g>
<g>
</g>
<g>
</g>
<g>
</g>
<g>
</g>
<g>
</g>
<g>
</g>
</svg>
