<?xml version="1.0" encoding="iso-8859-1"?>
<!-- Generator: Adobe Illustrator 19.0.0, SVG Export Plug-In . SVG Version: 6.00 Build 0)  -->
<svg version="1.1" id="Layer_1" xmlns="http://www.w3.org/2000/svg" xmlns:xlink="http://www.w3.org/1999/xlink" x="0px" y="0px"
	 viewBox="0 0 460.476 460.476" style="enable-background:new 0 0 460.476 460.476;" xml:space="preserve">
<g>
	<g>
		<g>
			<path d="M219.978,0.899C217.364,0.317,214.65,0,211.86,0c-6.688,0-12.958,1.773-18.381,4.861l9.605,9.248L219.978,0.899z"/>
			<path d="M244.679,19.667c-2.394-4.469-5.676-8.387-9.607-11.53l-15.318,11.978C227.732,19.122,236.124,18.844,244.679,19.667z"/>
			<path d="M182.165,14.79c-3.965,5.243-6.573,11.567-7.303,18.454c5.236-2.395,11.633-5,18.875-7.311L182.165,14.79z"/>
			<path d="M176.59,49.07c4.953,14.734,18.867,25.352,35.27,25.352c20.551,0,37.211-16.66,37.211-37.211
				c0-0.623-0.017-1.241-0.047-1.857C219.651,30.476,190.626,42.114,176.59,49.07z"/>
			<path d="M163.867,168.289l0.008,270.642c0,11.899,9.646,21.545,21.546,21.545s21.546-9.646,21.546-21.545V266.714h9.303V438.93
				c0,11.899,9.646,21.545,21.546,21.545c11.899,0,21.546-9.646,21.546-21.545l-0.393-255.965
				C258.969,182.965,212.082,194.625,163.867,168.289z"/>
			<path d="M337.963,94.065l-46-75.898c-5.138-8.48-16.182-11.188-24.66-6.048c-8.48,5.14-11.188,16.18-6.049,24.661l31.982,52.77
				l-34.648,5.102c-10.321,0-71.327,0-81.525,0c4.763,6.899,16.142,22.303,31.406,35.909c14.207,12.664,31.774,23.762,50.5,24.968
				V130.56c3.198,0-3.595,0.861,66.256-9.425c5.951-0.876,11.067-4.675,13.629-10.118C341.415,105.574,341.081,99.21,337.963,94.065
				z"/>
			<path d="M120.847,132.376c-0.373,3.316-0.217-6.174-0.934,136.456c-0.05,9.916,7.948,17.995,17.864,18.045
				c0.03,0,0.061,0,0.092,0c9.873,0,17.902-7.98,17.952-17.864l0.529-105.15C144.206,156.204,132.131,145.972,120.847,132.376z"/>
		</g>
	</g>
</g>
<g>
</g>
<g>
</g>
<g>
</g>
<g>
</g>
<g>
</g>
<g>
</g>
<g>
</g>
<g>
</g>
<g>
</g>
<g>
</g>
<g>
</g>
<g>
</g>
<g>
</g>
<g>
</g>
<g>
</g>
</svg>
