<?xml version="1.0" encoding="iso-8859-1"?>
<!-- Generator: Adobe Illustrator 19.0.0, SVG Export Plug-In . SVG Version: 6.00 Build 0)  -->
<svg version="1.1" id="Layer_1" xmlns="http://www.w3.org/2000/svg" xmlns:xlink="http://www.w3.org/1999/xlink" x="0px" y="0px"
	 viewBox="0 0 459.467 459.467" style="enable-background:new 0 0 459.467 459.467;" xml:space="preserve">
<g>
	<g>
		<g>
			<path d="M104.942,166.209h19.306v66.01c10.305-4.442,21.303-7.569,32.783-9.175v-73.227c0-9.052-7.339-16.391-16.391-16.391
				h-35.697c-9.052,0-16.391,7.339-16.391,16.391C88.551,158.87,95.889,166.209,104.942,166.209z"/>
			<circle cx="240.324" cy="44.342" r="44.342"/>
			<path d="M393.255,174.117c-2.636-10.778-13.51-17.373-24.289-14.739l-67.502,16.517l-47.917-44.131l37.411,19.743l0.063-10.548
				c0.099-16.543-13.233-30.034-29.775-30.132l-53.417-0.318c-16.543-0.098-30.034,13.233-30.132,29.776l-0.485,81.539
				c57.986,1.027,106.527,40.632,121.39,93.904l12.587,0.963l-17.281,114.851c-2.051,13.156,6.95,25.483,20.106,27.534
				c13.148,2.052,25.482-6.947,27.533-20.107l21.298-140.612c2.164-13.872-7.962-26.678-21.98-27.751l-50.591-3.871l0.161-26.992
				c-8.887-0.15-17.129-4.8-21.877-12.217l-42.229-66.205l55.839,51.427c4.922,4.533,11.815,6.344,18.386,4.737l77.964-19.077
				C389.294,195.769,395.893,184.894,393.255,174.117z"/>
			<path d="M174.907,240.917c-60.255,0-109.275,49.021-109.275,109.275c0,60.254,49.02,109.275,109.275,109.275
				s109.275-49.021,109.275-109.275C284.182,289.938,235.162,240.917,174.907,240.917z M241.385,302.347
				c-17.573,10.146-0.109,0.063-44.088,25.454c21.684-37.557,13.157-22.787,25.455-44.088
				C229.918,288.885,236.214,295.181,241.385,302.347z M183.103,268.646c8.996,0.897,17.558,3.273,25.466,6.851
				c-21.797,37.754-3.584,6.207-25.466,44.108C183.103,309.897,183.103,279.57,183.103,268.646z M166.711,268.646
				c0,10.364,0,39.693,0,50.959c-22.506-38.983-12.87-22.293-25.466-44.108C149.153,271.919,157.715,269.544,166.711,268.646z
				 M127.062,283.713c11.993,20.771,6.817,11.807,25.454,44.088c-43.971-25.387-26.52-15.311-44.088-25.454
				C113.6,295.181,119.896,288.885,127.062,283.713z M100.212,316.53c26.651,15.387,14.655,8.461,44.108,25.466
				c-12.143,0-41.059,0-50.959,0C94.259,333,96.634,324.438,100.212,316.53z M93.361,358.388c10.364,0,39.693,0,50.959,0
				c-29.358,16.95-15.131,8.736-44.108,25.466C96.634,375.946,94.259,367.384,93.361,358.388z M108.429,398.037
				c17.573-10.146,0.111-0.064,44.088-25.454c-18.8,32.562-13.317,23.064-25.455,44.088
				C119.896,411.499,113.6,405.203,108.429,398.037z M166.711,431.738c-8.996-0.897-17.558-3.273-25.466-6.851
				c12.595-21.814,2.959-5.125,25.466-44.108C166.711,392.922,166.711,421.837,166.711,431.738z M160.52,350.192
				c0-7.934,6.454-14.388,14.387-14.388c7.934,0,14.388,6.454,14.388,14.388c0,7.934-6.454,14.388-14.388,14.388
				C166.974,364.58,160.52,358.126,160.52,350.192z M183.103,431.738c0-10.364,0-39.693,0-50.959
				c22.506,38.983,12.87,22.293,25.466,44.108C200.661,428.465,192.099,430.84,183.103,431.738z M222.752,416.671
				c-11.993-20.771-6.817-11.806-25.454-44.088c43.973,25.388,26.52,15.311,44.088,25.454
				C236.214,405.203,229.918,411.499,222.752,416.671z M249.602,383.854c-28.977-16.73-14.75-8.516-44.108-25.466
				c12.143,0,41.059,0,50.959,0C255.555,367.384,253.18,375.946,249.602,383.854z M205.493,341.996
				c28.732-16.588,15.486-8.941,44.108-25.466c3.578,7.908,5.953,16.47,6.851,25.466
				C246.088,341.996,216.76,341.996,205.493,341.996z"/>
		</g>
	</g>
</g>
<g>
</g>
<g>
</g>
<g>
</g>
<g>
</g>
<g>
</g>
<g>
</g>
<g>
</g>
<g>
</g>
<g>
</g>
<g>
</g>
<g>
</g>
<g>
</g>
<g>
</g>
<g>
</g>
<g>
</g>
</svg>
