<?xml version="1.0" encoding="iso-8859-1"?>
<!-- Generator: Adobe Illustrator 18.0.0, SVG Export Plug-In . SVG Version: 6.00 Build 0)  -->
<!DOCTYPE svg PUBLIC "-//W3C//DTD SVG 1.1//EN" "http://www.w3.org/Graphics/SVG/1.1/DTD/svg11.dtd">
<svg version="1.1" id="Capa_1" xmlns="http://www.w3.org/2000/svg" xmlns:xlink="http://www.w3.org/1999/xlink" x="0px" y="0px"
	 viewBox="0 0 181.429 181.429" style="enable-background:new 0 0 181.429 181.429;" xml:space="preserve">
<g>
	<path d="M134.045,66.614c-3.707-1.853-8.211-0.35-10.063,3.354l-23.078,46.156H75.92c-2.841,0-5.438,1.605-6.708,4.146
		l-25.151,50.302c-1.853,3.705-0.351,8.21,3.354,10.062c1.077,0.539,2.221,0.794,3.348,0.794c2.751,0,5.4-1.52,6.714-4.148
		l23.079-46.156h24.985c2.841,0,5.438-1.605,6.708-4.146l25.15-50.302C139.252,72.972,137.75,68.467,134.045,66.614z"/>
	<path d="M143.162,0.718c-13.832,0-25.045,11.212-25.045,25.044c0,13.831,11.213,25.043,25.045,25.043
		c13.831,0,25.043-11.212,25.043-25.043C168.205,11.931,156.993,0.718,143.162,0.718z M143.162,35.806
		c-5.539,0-10.045-4.505-10.045-10.043c0-5.538,4.506-10.044,10.045-10.044c5.538,0,10.043,4.506,10.043,10.044
		C153.205,31.3,148.7,35.806,143.162,35.806z"/>
	<path d="M104.121,45.446C104.121,20.387,83.732,0,58.671,0c-25.06,0-45.447,20.387-45.447,45.446
		c0,25.061,20.388,45.449,45.447,45.449C83.732,90.895,104.121,70.507,104.121,45.446z M28.224,45.446
		C28.224,28.658,41.883,15,58.671,15c16.79,0,30.449,13.658,30.449,30.446c0,16.79-13.66,30.449-30.449,30.449
		C41.883,75.895,28.224,62.236,28.224,45.446z"/>
</g>
<g>
</g>
<g>
</g>
<g>
</g>
<g>
</g>
<g>
</g>
<g>
</g>
<g>
</g>
<g>
</g>
<g>
</g>
<g>
</g>
<g>
</g>
<g>
</g>
<g>
</g>
<g>
</g>
<g>
</g>
</svg>
